<?xml version="1.0" encoding="UTF-8"?>
<svg xmlns="http://www.w3.org/2000/svg" version="1.1" xmlns:xlink="http://www.w3.org/1999/xlink" viewBox="0 0 480 72">
  <defs>
    <style>
      .cls-1 {
        fill: none;
      }

      .cls-2 {
        opacity: 0;
      }

      .cls-2, .cls-3 {
        fill: #fcb216;
        isolation: isolate;
      }

      .cls-4 {
        fill: #126534;
      }

      .cls-3 {
        opacity: .1;
      }

      .cls-5 {
        clip-path: url(#clippath);
      }
    </style>
    <clipPath id="clippath">
      <path class="cls-1" d="M0,16C0,7.2,7.2,0,16,0h448C472.8,0,480,7.2,480,16v56H0V16Z"/>
    </clipPath>
  </defs>
  <!-- Generator: Adobe Illustrator 28.6.0, SVG Export Plug-In . SVG Version: 1.2.0 Build 709)  -->
  <g>
    <g id="Layer_1">
      <g class="cls-5">
        <g>
          <path class="cls-4" d="M0,16C0,7.2,7.2,0,16,0h448C472.8,0,480,7.2,480,16v56H0V16Z"/>
          <path class="cls-3" d="M.5,71.6c121.2-6.7,142.6-4.9,254-27.9,194.9-40.2,225.5,27.9,225.5,27.9,0,0-497.6,1-479.5,0Z"/>
          <path class="cls-2" d="M308.7,71.6c-78-6.7-91.8-4.9-163.5-27.9C19.7,3.5,0,71.6,0,71.6c0,0,320.4,1,308.7,0Z"/>
        </g>
      </g>
    </g>
  </g>
</svg>