<svg width="215" height="430" viewBox="0 0 215 430" fill="none" xmlns="http://www.w3.org/2000/svg">
<g opacity="0.2" clip-path="url(#clip0_1_442)">
<path d="M0.000106812 0C1.84477 0 3.68943 0.0194175 5.52438 0.0679612L3.0001 143.408C2.0001 143.369 1.00982 143.33 0.000106812 143.33C-1.0096 143.33 -1.99989 143.369 -2.99989 143.408L-5.52417 0.0679612C-3.68922 0.0194175 -1.84455 0 0.000106812 0Z" fill="url(#paint0_linear_1_442)"/>
<path d="M0.000106812 430C-1.84455 430 -3.68922 429.981 -5.52417 429.932L-2.99989 286.592C-1.99989 286.631 -1.0096 286.67 0.000106812 286.67C1.00982 286.67 2.0001 286.631 3.0001 286.592L5.52438 429.932C3.68943 429.981 1.84477 430 0.000106812 430Z" fill="url(#paint1_linear_1_442)"/>
<path d="M55.6408 422.67C53.8544 423.146 52.0679 423.602 50.2815 424.029L15.6213 284.922C16.5922 284.709 17.5631 284.476 18.534 284.223C19.5048 283.961 20.4563 283.67 21.4078 283.379L60.9515 421.175C59.1942 421.699 57.4175 422.194 55.6311 422.67H55.6408Z" fill="url(#paint2_linear_1_442)"/>
<path d="M107.495 401.194C105.893 402.116 104.291 403.019 102.67 403.893L33.1846 278.495C34.0681 278.029 34.9516 277.563 35.8156 277.058C36.6894 276.553 37.5341 276.029 38.3788 275.495L112.233 398.369C110.67 399.33 109.078 400.272 107.486 401.194H107.495Z" fill="url(#paint3_linear_1_442)"/>
<path d="M152.029 367.029C150.718 368.34 149.408 369.621 148.068 370.883L48.4951 267.738C49.233 267.058 49.9612 266.379 50.6699 265.67C51.3786 264.961 52.0582 264.233 52.7378 263.495L155.883 363.068C154.621 364.398 153.33 365.718 152.029 367.029Z" fill="url(#paint4_linear_1_442)"/>
<path d="M186.194 322.495C185.272 324.097 184.33 325.68 183.369 327.243L60.4951 253.388C61.0291 252.544 61.5534 251.699 62.0582 250.825C62.5631 249.952 63.0291 249.078 63.4951 248.194L188.893 317.68C188.019 319.291 187.116 320.903 186.194 322.495Z" fill="url(#paint5_linear_1_442)"/>
<path d="M207.67 270.641C207.194 272.427 206.689 274.194 206.175 275.961L68.3787 236.418C68.6796 235.466 68.9709 234.515 69.233 233.544C69.4952 232.573 69.7185 231.602 69.9321 230.631L209.039 265.291C208.612 267.078 208.155 268.864 207.68 270.651L207.67 270.641Z" fill="url(#paint6_linear_1_442)"/>
<path d="M215 215C215 216.845 214.981 218.689 214.932 220.524L71.5923 218C71.6311 217 71.6699 216.01 71.6699 215C71.6699 213.99 71.6311 213 71.5923 212L214.932 209.476C214.981 211.311 215 213.155 215 215Z" fill="url(#paint7_linear_1_442)"/>
<path d="M207.67 159.35C208.146 161.136 208.602 162.922 209.029 164.709L69.9223 199.369C69.7088 198.398 69.4757 197.427 69.2233 196.456C68.9612 195.485 68.6699 194.534 68.3787 193.583L206.175 154.039C206.699 155.796 207.194 157.573 207.67 159.359V159.35Z" fill="url(#paint8_linear_1_442)"/>
<path d="M186.194 107.495C187.116 109.097 188.019 110.699 188.893 112.32L63.4951 181.806C63.0291 180.922 62.5631 180.039 62.0582 179.175C61.5534 178.311 61.0291 177.456 60.4951 176.612L183.369 102.757C184.33 104.32 185.272 105.913 186.194 107.505V107.495Z" fill="url(#paint9_linear_1_442)"/>
<path d="M152.029 62.9709C153.34 64.2816 154.621 65.5922 155.883 66.9321L52.7378 166.505C52.0582 165.767 51.3786 165.039 50.6699 164.33C49.9612 163.621 49.233 162.942 48.4951 162.262L148.068 59.1165C149.398 60.3787 150.718 61.6699 152.029 62.9709Z" fill="url(#paint10_linear_1_442)"/>
<path d="M107.495 28.8058C109.097 29.7282 110.68 30.6699 112.243 31.6311L38.3883 154.505C37.5436 153.971 36.699 153.447 35.8252 152.942C34.9514 152.437 34.0776 151.971 33.1941 151.505L102.68 26.0971C104.291 26.9709 105.903 27.8738 107.495 28.7961V28.8058Z" fill="url(#paint11_linear_1_442)"/>
<path d="M55.6408 7.33011C57.4272 7.80584 59.1942 8.3107 60.9612 8.82526L21.4175 146.621C20.466 146.32 19.5146 146.029 18.5437 145.767C17.5729 145.505 16.602 145.282 15.6311 145.068L50.2913 5.96118C52.0777 6.38837 53.8641 6.84468 55.6505 7.32041L55.6408 7.33011Z" fill="url(#paint12_linear_1_442)"/>
<path d="M-55.8447 90.9903C-53.6603 89.0971 -51.4078 87.2718 -49.1263 85.4951L-24.6311 147.709C-25.5632 148.049 -26.5049 148.398 -27.4272 148.786C-28.3593 149.175 -29.2622 149.583 -30.1651 150L-55.835 90.9903H-55.8447ZM-45.9709 160.029C-45.2039 159.388 -44.437 158.757 -43.6408 158.146C-42.8447 157.534 -42.0292 156.951 -41.2137 156.379L-75.068 110.612C-76.8156 112.718 -78.5146 114.874 -80.1554 117.078L-45.9807 160.029H-45.9709ZM-71.3787 208.631C-71.2913 207.641 -71.1942 206.641 -71.0583 205.65C-70.9224 204.66 -70.7573 203.67 -70.5923 202.689L-111.583 196.553C-111.854 199.01 -112.078 201.495 -112.243 203.981L-71.369 208.631H-71.3787ZM-58.6311 173.796C-58.0583 172.981 -57.4758 172.165 -56.8641 171.369C-56.2525 170.573 -55.6214 169.806 -54.9806 169.039L-93.5923 138.311C-94.8156 140.621 -95.9903 142.961 -97.1068 145.33L-58.6311 173.786V173.796ZM-67.301 190.369C-66.9612 189.437 -66.6117 188.495 -66.2234 187.573C-65.835 186.65 -65.4272 185.738 -65.0098 184.835L-105.544 167.204C-106.282 169.621 -106.961 172.058 -107.592 174.515L-67.3107 190.379L-67.301 190.369ZM12.3009 144.408L25.9611 53.1165C22.7572 53.6116 19.5922 54.2039 16.4465 54.8835L6.34946 143.621C7.33975 143.709 8.33974 143.806 9.33003 143.942C10.33 144.078 11.3106 144.243 12.2912 144.408H12.3009ZM64.9805 184.825C65.398 185.728 65.8155 186.641 66.1941 187.563C66.5728 188.485 66.932 189.427 67.2718 190.359L196.553 139.456C194.864 136.214 193.078 133.029 191.184 129.913L64.9805 184.816V184.825ZM71.3592 208.621L213.437 192.456C212.932 188.786 212.311 185.155 211.573 181.573L70.5728 202.67C70.7475 203.65 70.9126 204.641 71.0388 205.631C71.165 206.621 71.2621 207.621 71.3592 208.612V208.621ZM54.9611 169.029C55.6019 169.796 56.2329 170.563 56.8446 171.359C57.4562 172.155 58.0388 172.971 58.6116 173.786L163.757 96.0097C161.155 93.5437 158.466 91.1553 155.699 88.8641L54.9514 169.029H54.9611ZM24.6116 147.699C25.5436 148.039 26.4854 148.388 27.4077 148.777C28.3397 149.165 29.2427 149.573 30.1456 149.99L72.5339 52.5631C69.2038 52.1262 65.8446 51.8058 62.4562 51.5728L24.6116 147.699ZM41.1844 156.369C41.9999 156.942 42.8155 157.524 43.6116 158.136C44.4077 158.748 45.1844 159.379 45.9417 160.019L120.369 66.4854C117.204 65.0097 113.99 63.6311 110.728 62.3495L41.1844 156.369ZM-12.3399 144.408C-11.3593 144.233 -10.369 144.068 -9.37871 143.942C-8.37871 143.816 -7.38841 143.718 -6.39812 143.621L-15.3107 65.2427C-18.1166 66.4854 -20.8739 67.8058 -23.5923 69.2039L-12.3399 144.408ZM30.1456 279.99C29.2427 280.408 28.33 280.825 27.4077 281.204C26.4757 281.592 25.5436 281.942 24.6116 282.282L49.1067 344.495C51.398 342.718 53.6407 340.893 55.8252 339L30.1553 279.99H30.1456ZM45.9417 269.971C45.1747 270.612 44.4077 271.243 43.6116 271.854C42.8155 272.466 41.9999 273.049 41.1844 273.621L75.0388 319.388C76.7863 317.282 78.4854 315.126 80.1262 312.922L45.9514 269.971H45.9417ZM71.3495 221.369C71.2621 222.359 71.165 223.359 71.0291 224.35C70.8931 225.35 70.7281 226.33 70.563 227.311L111.553 233.447C111.825 230.99 112.048 228.505 112.214 226.019L71.3397 221.369H71.3495ZM58.6019 256.204C58.0291 257.019 57.4465 257.835 56.8349 258.631C56.2232 259.427 55.5922 260.194 54.9514 260.961L93.563 291.689C94.7863 289.379 95.9611 287.039 97.0776 284.67L58.6019 256.214V256.204ZM67.2718 239.631C66.932 240.563 66.5825 241.505 66.1941 242.427C65.8058 243.35 65.398 244.262 64.9805 245.165L105.514 262.796C106.252 260.379 106.932 257.942 107.563 255.485L67.2815 239.621L67.2718 239.631ZM-12.3302 285.592L-25.9904 376.883C-22.7865 376.388 -19.6214 375.796 -16.4758 375.116L-6.37869 286.379C-7.36899 286.291 -8.369 286.194 -9.35928 286.058C-10.3593 285.922 -11.3399 285.757 -12.3204 285.592H-12.3302ZM-65.0098 245.175C-65.4272 244.272 -65.8447 243.359 -66.2234 242.437C-66.602 241.515 -66.9612 240.573 -67.301 239.641L-196.573 290.524C-194.884 293.767 -193.097 296.951 -191.204 300.068L-65.0001 245.165L-65.0098 245.175ZM-71.3884 221.379L-213.447 237.534C-212.942 241.204 -212.32 244.835 -211.583 248.417L-70.5826 227.32C-70.7573 226.34 -70.9224 225.35 -71.0486 224.359C-71.1845 223.359 -71.2719 222.369 -71.369 221.379H-71.3884ZM-54.9904 260.971C-55.6311 260.204 -56.2622 259.437 -56.8739 258.641C-57.4855 257.845 -58.068 257.029 -58.6408 256.214L-163.786 333.99C-161.185 336.456 -158.495 338.845 -155.728 341.136L-54.9806 260.971H-54.9904ZM-24.6408 282.301C-25.5729 281.961 -26.5146 281.612 -27.437 281.223C-28.369 280.835 -29.2719 280.427 -30.1748 280.01L-72.5632 377.437C-69.2331 377.874 -65.8739 378.194 -62.4855 378.427L-24.6408 282.301ZM-41.2137 273.631C-42.0292 273.058 -42.8447 272.476 -43.6408 271.864C-44.437 271.252 -45.2137 270.621 -45.9709 269.981L-120.398 363.515C-117.233 364.99 -114.019 366.369 -110.757 367.65L-41.2137 273.631ZM12.3106 285.592C11.33 285.767 10.3398 285.932 9.34946 286.058C8.34946 286.184 7.35916 286.282 6.36887 286.379L15.2815 364.757C18.0873 363.515 20.8446 362.194 23.563 360.796L12.3106 285.592Z" fill="url(#paint13_radial_1_442)"/>
</g>
<defs>
<linearGradient id="paint0_linear_1_442" x1="0.000109042" y1="156.515" x2="0.000109042" y2="6.85436" gradientUnits="userSpaceOnUse">
<stop stop-color="#F5D389"/>
<stop offset="1" stop-color="#C17F39"/>
</linearGradient>
<linearGradient id="paint1_linear_1_442" x1="0.000104581" y1="273.485" x2="0.000104581" y2="423.146" gradientUnits="userSpaceOnUse">
<stop stop-color="#F5D389"/>
<stop offset="1" stop-color="#C17F39"/>
</linearGradient>
<linearGradient id="paint2_linear_1_442" x1="15.1349" y1="271.487" x2="53.8698" y2="416.048" gradientUnits="userSpaceOnUse">
<stop stop-color="#F5D389"/>
<stop offset="1" stop-color="#C17F39"/>
</linearGradient>
<linearGradient id="paint3_linear_1_442" x1="29.2433" y1="265.65" x2="104.069" y2="395.252" gradientUnits="userSpaceOnUse">
<stop stop-color="#F5D389"/>
<stop offset="1" stop-color="#C17F39"/>
</linearGradient>
<linearGradient id="paint4_linear_1_442" x1="41.3588" y1="256.355" x2="147.185" y2="362.181" gradientUnits="userSpaceOnUse">
<stop stop-color="#F5D389"/>
<stop offset="1" stop-color="#C17F39"/>
</linearGradient>
<linearGradient id="paint5_linear_1_442" x1="50.6528" y1="244.243" x2="180.262" y2="319.073" gradientUnits="userSpaceOnUse">
<stop stop-color="#F5D389"/>
<stop offset="1" stop-color="#C17F39"/>
</linearGradient>
<linearGradient id="paint6_linear_1_442" x1="56.4887" y1="230.138" x2="201.049" y2="268.873" gradientUnits="userSpaceOnUse">
<stop stop-color="#F5D389"/>
<stop offset="1" stop-color="#C17F39"/>
</linearGradient>
<linearGradient id="paint7_linear_1_442" x1="58.4855" y1="215" x2="208.146" y2="215" gradientUnits="userSpaceOnUse">
<stop stop-color="#F5D389"/>
<stop offset="1" stop-color="#C17F39"/>
</linearGradient>
<linearGradient id="paint8_linear_1_442" x1="56.4911" y1="199.862" x2="201.052" y2="161.127" gradientUnits="userSpaceOnUse">
<stop stop-color="#F5D389"/>
<stop offset="1" stop-color="#C17F39"/>
</linearGradient>
<linearGradient id="paint9_linear_1_442" x1="50.6436" y1="185.758" x2="180.253" y2="110.928" gradientUnits="userSpaceOnUse">
<stop stop-color="#F5D389"/>
<stop offset="1" stop-color="#C17F39"/>
</linearGradient>
<linearGradient id="paint10_linear_1_442" x1="41.3571" y1="173.64" x2="147.183" y2="67.8146" gradientUnits="userSpaceOnUse">
<stop stop-color="#F5D389"/>
<stop offset="1" stop-color="#C17F39"/>
</linearGradient>
<linearGradient id="paint11_linear_1_442" x1="29.2462" y1="164.347" x2="104.076" y2="34.7376" gradientUnits="userSpaceOnUse">
<stop stop-color="#F5D389"/>
<stop offset="1" stop-color="#C17F39"/>
</linearGradient>
<linearGradient id="paint12_linear_1_442" x1="15.1392" y1="158.508" x2="53.8741" y2="13.947" gradientUnits="userSpaceOnUse">
<stop stop-color="#F5D389"/>
<stop offset="1" stop-color="#C17F39"/>
</linearGradient>
<radialGradient id="paint13_radial_1_442" cx="0" cy="0" r="1" gradientUnits="userSpaceOnUse" gradientTransform="translate(2.36887 215.718) scale(221.709 221.709)">
<stop offset="0.1" stop-color="#C17F39"/>
<stop offset="1" stop-color="#F5D389"/>
</radialGradient>
<clipPath id="clip0_1_442">
<rect width="430" height="430" fill="white" transform="translate(-215)"/>
</clipPath>
</defs>
</svg>
