<svg width="32" height="34" viewBox="0 0 32 34" fill="none" xmlns="http://www.w3.org/2000/svg">
<g clip-path="url(#clip0_36_1194)">
<path d="M26.9364 21.1442C25.9666 22.6981 24.8167 24.2173 23.4981 25.6503C16.3289 33.4419 6.86243 35.786 2.3547 30.8869C0.312938 28.6678 -0.361688 25.3434 0.177501 21.6469L1.78229 21.6164C1.75546 23.5729 2.26399 25.2657 3.36664 26.4641C6.66055 30.044 14.0061 27.8652 19.7736 21.5969C19.872 21.49 19.9704 21.3817 20.0662 21.2734L26.9364 21.1442Z" fill="#fff"/>
<path d="M32 13.6553L29.6337 15.4745L26.4075 17.9559L24.7133 13.8442L23.5953 11.1322L25.4084 11.6765C26.221 8.44798 25.899 5.55546 24.2508 3.76552C21.0629 0.300881 14.0803 2.22969 8.40601 8.03972H7.0542C7.09381 7.99529 7.13469 7.95085 7.1743 7.9078C14.3422 0.117582 23.8087 -2.22782 28.3164 2.67127C30.5818 5.13332 31.1631 8.95483 30.2726 13.1374L32 13.6553Z" fill="#fff"/>
<path d="M5.41748 14.3372C5.75351 14.4608 6.00522 14.6621 6.16876 14.9426C6.33231 15.2231 6.41536 15.8799 6.41536 16.9131C6.41536 17.681 6.33487 18.2753 6.17387 18.6989C6.01288 19.1224 5.73435 19.4446 5.33954 19.6653C4.94473 19.8861 4.43748 19.9958 3.82035 19.9958C3.11762 19.9958 2.56693 19.8681 2.16573 19.6112C1.76581 19.3543 1.50133 19.0405 1.37611 18.6683C1.24962 18.2962 1.18701 17.6518 1.18701 16.7326V15.9688H3.40382V17.5366C3.40382 17.9546 3.42682 18.2198 3.47282 18.3323C3.51881 18.4461 3.61975 18.5017 3.77691 18.5017C3.9494 18.5017 4.06184 18.4295 4.11678 18.2864C4.17172 18.1434 4.19855 17.7699 4.19855 17.1658V16.4979C4.19855 16.1285 4.16022 15.8577 4.08356 15.6869C4.0069 15.5161 3.89318 15.4036 3.74369 15.3495C3.5942 15.2953 3.30288 15.2648 2.87102 15.2564V13.8553C3.39743 13.8553 3.72325 13.8331 3.84718 13.7901C3.97112 13.747 4.06056 13.6512 4.1155 13.504C4.17044 13.3568 4.19727 13.1263 4.19727 12.8125V12.2751C4.19727 11.9376 4.16533 11.714 4.10145 11.6071C4.03756 11.5002 3.9379 11.446 3.80246 11.446C3.64914 11.446 3.54309 11.503 3.48687 11.6155C3.43065 11.7293 3.40127 11.9696 3.40127 12.3403V13.1332H1.18701V12.3098C1.18701 11.3877 1.38122 10.7642 1.76837 10.4407C2.15551 10.1171 2.77264 9.95465 3.6172 9.95465C4.67386 9.95465 5.39192 10.1796 5.76757 10.6281C6.14449 11.0781 6.33231 11.7015 6.33231 12.5C6.33231 13.0402 6.26459 13.4318 6.12916 13.672C5.99372 13.9123 5.75607 14.1317 5.4162 14.3316L5.41748 14.3372Z" fill="#fff"/>
<path d="M12.5343 12.7154H10.3175C10.3175 12.2655 10.3123 11.9836 10.3034 11.8655C10.2945 11.7489 10.2497 11.6503 10.1718 11.5698C10.0939 11.4892 9.98653 11.4503 9.8511 11.4503C9.73738 11.4503 9.64411 11.4878 9.57128 11.5642C9.49845 11.6392 9.45629 11.7378 9.44479 11.8558C9.43329 11.9752 9.42818 12.2155 9.42818 12.5779V14.1165C9.54189 13.8582 9.70799 13.6638 9.92776 13.5347C10.1475 13.4055 10.4184 13.3403 10.7404 13.3403C11.1467 13.3403 11.5044 13.4597 11.8162 13.6985C12.128 13.9374 12.3247 14.2234 12.4091 14.5567C12.4934 14.89 12.5355 15.3413 12.5355 15.9106V16.6799C12.5355 17.3562 12.5113 17.8589 12.464 18.188C12.4167 18.5185 12.2889 18.8226 12.0832 19.1031C11.8763 19.3836 11.5926 19.6016 11.2323 19.7557C10.872 19.9113 10.4516 19.9876 9.97248 19.9876C9.37579 19.9876 8.88771 19.8988 8.50696 19.7196C8.1262 19.5405 7.83233 19.2836 7.62662 18.9476C7.41963 18.6115 7.29953 18.2588 7.26503 17.8894C7.23053 17.5201 7.21265 16.8021 7.21265 15.737V14.4012C7.21265 13.2528 7.22798 12.4835 7.25864 12.0961C7.28931 11.7086 7.41708 11.342 7.6394 10.9963C7.86172 10.6505 8.16709 10.3908 8.55295 10.2186C8.93882 10.0464 9.38474 9.95895 9.88943 9.95895C10.5117 9.95895 11.0215 10.0687 11.4201 10.2867C11.8188 10.5047 12.1037 10.813 12.2762 11.2115C12.4487 11.6086 12.5343 12.1099 12.5343 12.714V12.7154ZM10.3175 15.7273C10.3175 15.3857 10.283 15.151 10.2127 15.0233C10.1437 14.8955 10.03 14.833 9.87282 14.833C9.71566 14.833 9.60706 14.8941 9.53551 15.015C9.46395 15.1358 9.42818 15.3732 9.42818 15.7273V17.4742C9.42818 17.8991 9.4614 18.1783 9.52912 18.3088C9.59684 18.4393 9.70927 18.506 9.86643 18.506C9.96098 18.506 10.0606 18.456 10.1629 18.3546C10.2651 18.2532 10.3162 17.9797 10.3162 17.5353V15.7287L10.3175 15.7273Z" fill="#fff"/>
<path d="M18.5253 13.4193V16.6395C18.5253 17.3713 18.4882 17.9032 18.4154 18.2378C18.3426 18.5711 18.1905 18.8835 17.9605 19.1738C17.7306 19.464 17.452 19.6723 17.1262 19.8C16.8004 19.9278 16.4362 19.9903 16.0338 19.9903C15.5035 19.9903 15.0627 19.9236 14.7113 19.7903C14.36 19.657 14.0802 19.4501 13.8719 19.1668C13.6636 18.8849 13.5154 18.5878 13.4273 18.2753C13.3391 17.9629 13.2957 17.4671 13.2957 16.7881V13.4193C13.2957 12.5333 13.3659 11.8682 13.5065 11.428C13.647 10.9864 13.9268 10.6323 14.3459 10.3671C14.765 10.1004 15.2723 9.96713 15.8689 9.96713C16.3557 9.96713 16.7902 10.0602 17.1748 10.2449C17.5593 10.4295 17.8455 10.6559 18.0359 10.9211C18.2263 11.1877 18.3553 11.4877 18.4231 11.821C18.4908 12.1556 18.524 12.6875 18.524 13.4193H18.5253ZM16.3085 12.6083C16.3085 12.0959 16.2855 11.7737 16.2395 11.6446C16.1935 11.5155 16.0862 11.4502 15.9188 11.4502C15.7514 11.4502 15.6453 11.5182 15.5917 11.6557C15.538 11.7932 15.5125 12.1098 15.5125 12.6069V17.3185C15.5125 17.8796 15.5367 18.217 15.5866 18.3322C15.6364 18.4475 15.7425 18.5044 15.9073 18.5044C16.0721 18.5044 16.1794 18.4364 16.2305 18.3017C16.2816 18.167 16.3072 17.8629 16.3072 17.3894V12.6069L16.3085 12.6083Z" fill="#fff"/>
<path d="M22.0799 12.0681V12.5347C22.0799 12.9499 22.0607 13.254 22.0224 13.447C21.984 13.6401 21.9023 13.822 21.7758 13.99C21.6493 14.158 21.4883 14.2816 21.2915 14.3622C21.0948 14.4427 20.8673 14.4816 20.6118 14.4816C20.3256 14.4816 20.0841 14.4469 19.8861 14.3788C19.688 14.3108 19.5334 14.2066 19.4235 14.0692C19.3137 13.9317 19.2357 13.765 19.1884 13.5679C19.1412 13.3721 19.1182 13.0777 19.1182 12.6861V12.1667C19.1182 11.7376 19.1603 11.403 19.2459 11.1614C19.3315 10.9197 19.4849 10.7267 19.7072 10.5809C19.9295 10.4351 20.2132 10.3615 20.5581 10.3615C20.8482 10.3615 21.0973 10.4087 21.3056 10.5018C21.5139 10.5962 21.6736 10.7184 21.7873 10.8684C21.8997 11.0197 21.9777 11.1739 22.0185 11.3349C22.0594 11.496 22.0812 11.7376 22.0812 12.0654L22.0799 12.0681ZM20.7881 11.721C20.7881 11.4849 20.7766 11.3363 20.7523 11.2738C20.7281 11.2114 20.6782 11.1822 20.6016 11.1822C20.5249 11.1822 20.4738 11.2127 20.4482 11.2738C20.4227 11.3349 20.4099 11.4835 20.4099 11.721V13.1402C20.4099 13.3582 20.4227 13.4998 20.4482 13.5665C20.4738 13.6331 20.5236 13.6651 20.599 13.6651C20.6744 13.6651 20.7268 13.6345 20.7511 13.5748C20.7753 13.5151 20.7881 13.3846 20.7881 13.186V11.721Z" fill="#fff"/>
</g>
<defs>
<clipPath id="clip0_36_1194">
<rect width="32" height="33.3341" fill="white" transform="translate(0 0.11203)"/>
</clipPath>
</defs>
</svg>
