<svg width="27" height="39" viewBox="0 0 27 39" fill="none" xmlns="http://www.w3.org/2000/svg">
<g clip-path="url(#clip0_36_1202)">
<path d="M0 8.87944C0.0170207 8.68886 0.0306373 8.49641 0.0510622 8.30583C0.136166 7.50987 0.342117 6.75876 0.745508 6.08238C1.10465 5.48261 1.57782 5.01176 2.11568 4.61192C2.74204 4.14854 3.42117 3.79354 4.11051 3.46283C4.14455 3.44601 4.17859 3.43106 4.21604 3.41425C4.32837 3.64967 4.4356 3.87949 4.54794 4.10744C5.22537 5.47887 5.9062 6.84657 6.58022 8.21988C7.31381 9.71463 8.05421 11.2075 8.69079 12.7565C8.73504 12.8648 8.77589 12.9769 8.81504 13.0816C8.67036 13.203 8.52569 13.3114 8.39463 13.4403C7.97081 13.8551 7.71039 14.3801 7.5555 14.9724C7.38189 15.6301 7.34275 16.3028 7.37849 16.9847C7.44827 18.3057 7.75805 19.5669 8.19889 20.7908C8.80483 22.4761 9.62352 24.0232 10.689 25.4095C11.3154 26.2242 12.0149 26.951 12.8387 27.5228C13.4004 27.9133 13.9996 28.2085 14.6583 28.3467C15.5467 28.5317 16.3825 28.3748 17.1705 27.889C17.1926 27.8759 17.2165 27.8609 17.2386 27.8479C17.2437 27.8441 17.2488 27.8441 17.2471 27.8441C18.6105 31.1662 20.0555 34.4397 21.841 37.5301C21.7593 37.575 21.6623 37.6292 21.5653 37.6815C20.973 38.001 20.3823 38.3224 19.7543 38.554C19.2913 38.7259 18.8181 38.8455 18.3279 38.8717C18.2973 38.8717 18.2667 38.8829 18.236 38.8885H17.8735C17.7884 38.8792 17.7033 38.8679 17.6165 38.8605C17.0752 38.8082 16.551 38.6718 16.0489 38.455C15.6608 38.2887 15.2642 38.1262 14.9068 37.8945C13.9213 37.2536 13.0362 36.4614 12.1885 35.6169C11.1179 34.55 10.1341 33.3897 9.20822 32.1696C7.97932 30.5515 6.85936 28.8438 5.83301 27.0631C4.86282 25.3834 3.97945 23.6495 3.19139 21.8595C2.61439 20.5516 2.09015 19.2194 1.63229 17.8554C1.20166 16.5756 0.830612 15.2751 0.546366 13.9467C0.289353 12.7434 0.0987203 11.5289 0.0306373 10.2939C0.022127 10.1612 0.0102124 10.0229 0 9.88653C0 9.55021 0 9.21576 0 8.87944Z" fill="#fff"/>
<path d="M23.0683 37.3751C22.7517 37.3807 22.5628 37.2387 22.4351 37.0145C22.2785 36.7417 22.1424 36.4558 22.0045 36.1699C20.7399 33.5223 19.4786 30.8748 18.214 28.2272C18.071 27.9282 17.911 27.6367 17.768 27.3397C17.6761 27.1491 17.6149 26.9454 17.6114 26.7231C17.608 26.5007 17.6761 26.3102 17.8225 26.1607C17.9297 26.0523 18.0489 25.9533 18.1731 25.8711C18.8301 25.4376 19.4922 25.0135 20.1509 24.5818C20.3875 24.4268 20.6309 24.2941 20.8999 24.2194C21.2062 24.1353 21.4632 24.2231 21.6488 24.5052C21.773 24.694 21.8751 24.9013 21.9875 25.0994C23.0377 26.9604 24.0878 28.8232 25.1363 30.6842C25.6997 31.6819 26.2631 32.6797 26.8231 33.6793C26.9507 33.9072 27.0239 34.1539 26.995 34.4285C26.9729 34.6415 26.8775 34.8134 26.7346 34.9498C26.6205 35.0601 26.4946 35.1554 26.3669 35.2469C25.9516 35.5421 25.5312 35.8299 25.1159 36.127C24.6836 36.4371 24.2615 36.7622 23.8257 37.0649C23.5789 37.2368 23.3066 37.3527 23.07 37.3732L23.0683 37.3751Z" fill="#fff"/>
<path d="M8.35548 0.0025421C8.68057 -0.00866856 8.9461 0.150149 9.18779 0.366889C9.20992 0.385573 9.22353 0.415468 9.23715 0.443495C10.4218 2.84818 11.6047 5.25287 12.7877 7.65755C13.1179 8.32833 13.4515 8.99723 13.7783 9.66987C13.8498 9.81747 13.9059 9.97442 13.9502 10.1332C14.0047 10.3294 13.9553 10.5032 13.8106 10.6377C13.5894 10.8395 13.3698 11.0376 13.106 11.1777C12.4149 11.5402 11.7341 11.9288 11.0448 12.2969C10.8745 12.3885 10.6941 12.4595 10.512 12.5118C10.2414 12.5884 10.0099 12.4931 9.83288 12.2558C9.7733 12.1754 9.71714 12.0895 9.66948 11.9998C8.71121 10.1594 7.75464 8.31898 6.79808 6.4767C6.20405 5.33321 5.60833 4.19159 5.0126 3.0481C4.98877 3.00139 4.95644 2.96029 4.9241 2.92105C4.58538 2.50812 4.65006 2.13257 4.98197 1.73833C4.99728 1.71964 5.01941 1.7103 5.03984 1.69722C5.90279 1.19648 6.76574 0.691998 7.6321 0.19686C7.85507 0.0679376 8.10017 0.00814743 8.35548 0.0025421Z" fill="#fff"/>
</g>
<defs>
<clipPath id="clip0_36_1202">
<rect width="27" height="38.8898" fill="white" transform="translate(0 0.00247192)"/>
</clipPath>
</defs>
</svg>
