<svg width="44" height="44" viewBox="0 0 44 44" fill="none" xmlns="http://www.w3.org/2000/svg">
<g clip-path="url(#clip0_103_569)">
<path d="M22.4856 43.0288C10.6082 43.0288 0.971191 33.3918 0.971191 21.5144C0.971191 9.63704 10.6082 0 22.4856 0C34.363 0 44 9.63704 44 21.5144C44 33.3918 34.363 43.0288 22.4856 43.0288Z" fill="url(#paint0_linear_103_569)"/>
<path d="M20.6365 19.3097C20.6365 20.5899 20.6365 21.9056 20.6365 23.1858C20.6009 23.1858 20.4942 23.1858 20.4587 23.1503C18.3961 22.6169 16.4047 23.9326 16.0847 26.0307C15.8002 27.8799 17.1515 29.7291 19.0007 29.978C20.8854 30.2269 22.5568 29.089 22.9479 27.2398C22.9835 27.0264 23.0191 26.7775 23.0191 26.493C23.0191 21.1588 23.0191 15.7891 23.0191 10.455C23.0191 10.3839 23.0191 10.2772 23.0191 10.2061C24.2993 10.2061 25.615 10.2061 26.8952 10.2061C26.9308 11.8419 27.4997 13.2287 28.6733 14.3667C29.8468 15.5402 31.1981 16.0736 32.905 16.1447C32.905 17.4249 32.905 18.6696 32.905 19.9853C31.8382 19.9853 30.8069 19.8075 29.7757 19.4519C28.7799 19.0963 27.8554 18.634 26.9308 17.9584C26.9308 18.1006 26.9308 18.1362 26.9308 18.2073C26.9308 20.9455 26.9308 23.7192 26.9308 26.4574C26.9308 30.1202 24.4059 33.1429 20.7787 33.7119C16.867 34.3876 13.1331 31.8983 12.2441 27.9866C11.3906 24.0749 14.0221 20.1276 17.9338 19.3097C18.7873 19.1319 19.6408 19.0963 20.5298 19.2386C20.5653 19.3097 20.6009 19.3097 20.6365 19.3097Z" fill="#FBFBFB"/>
<path d="M22.4856 0.711221C33.9718 0.711221 43.2888 10.0282 43.2888 21.5144C43.2888 33.0006 33.9718 42.3176 22.4856 42.3176C10.9994 42.3176 1.68241 33.0006 1.68241 21.5144C1.68241 10.0282 10.9994 0.711221 22.4856 0.711221ZM22.4856 0C10.6082 0 0.971191 9.63704 0.971191 21.5144C0.971191 33.3918 10.6082 43.0288 22.4856 43.0288C34.363 43.0288 44 33.3918 44 21.5144C44 9.63704 34.363 0 22.4856 0Z" fill="url(#paint1_linear_103_569)"/>
</g>
<defs>
<linearGradient id="paint0_linear_103_569" x1="44" y1="1.28236e-06" x2="0.97119" y2="43.0288" gradientUnits="userSpaceOnUse">
<stop stop-color="#EFCA80"/>
<stop offset="1" stop-color="#C18039"/>
</linearGradient>
<linearGradient id="paint1_linear_103_569" x1="44" y1="1.28236e-06" x2="0.97119" y2="43.0288" gradientUnits="userSpaceOnUse">
<stop stop-color="#EFCA80"/>
<stop offset="1" stop-color="#C18039"/>
</linearGradient>
<clipPath id="clip0_103_569">
<rect width="43.0288" height="43.0288" fill="white" transform="translate(0.971191)"/>
</clipPath>
</defs>
</svg>
