<svg width="44" height="44" viewBox="0 0 44 44" fill="none" xmlns="http://www.w3.org/2000/svg">
<path d="M21.5143 42.851C9.74365 42.851 0.177734 33.285 0.177734 21.5143C0.177734 9.74365 9.74365 0.177734 21.5143 0.177734C33.285 0.177734 42.851 9.74365 42.851 21.5143C42.851 33.285 33.285 42.851 21.5143 42.851Z" fill="url(#paint0_linear_103_585)"/>
<path d="M16.038 16.5361H8.07234V18.2786H13.6199L8.17902 24.9997C8.00121 25.2486 7.89453 25.4975 7.89453 26.0309V26.4932H15.3979C15.7535 26.4932 16.1091 26.1732 16.1091 25.782V24.893H10.2416L15.3623 18.492C15.4335 18.4209 15.5757 18.2431 15.6468 18.1719L15.6824 18.1364C15.9669 17.6741 16.038 17.3185 16.038 16.8562V16.5717V16.5361ZM26.1373 26.4577H27.2753V16.5361H25.5328V25.8531C25.6039 26.1732 25.8528 26.4577 26.1373 26.4577ZM20.3053 18.7054C18.1717 18.7054 16.4292 20.4478 16.4292 22.5815C16.4292 24.7152 18.1717 26.4577 20.3053 26.4577C22.439 26.4577 24.1815 24.7152 24.1815 22.5815C24.217 20.4834 22.5101 18.7054 20.3053 18.7054ZM20.3053 24.893C19.0251 24.893 17.9939 23.8617 17.9939 22.5815C17.9939 21.3013 19.0251 20.27 20.3053 20.27C21.5855 20.27 22.6168 21.3013 22.6168 22.5815C22.6168 23.8617 21.5855 24.893 20.3053 24.893ZM32.3605 18.6698C30.1913 18.6698 28.4488 20.4478 28.4488 22.5815C28.4488 24.7507 30.2269 26.4932 32.3605 26.4932C34.5297 26.4932 36.2722 24.7152 36.2722 22.5815C36.2722 20.4478 34.4942 18.6698 32.3605 18.6698ZM32.3605 24.893C31.0803 24.893 30.049 23.8617 30.049 22.5815C30.049 21.3013 31.0803 20.27 32.3605 20.27C33.6407 20.27 34.672 21.3013 34.672 22.5815C34.672 23.8617 33.6407 24.893 32.3605 24.893ZM23.328 26.4577H24.217V18.9898H22.6168V25.8176C22.6168 26.102 22.9368 26.4577 23.328 26.4577Z" fill="#FBFBFB"/>
<path d="M21.5143 0.888955C32.8939 0.888955 42.1397 10.1348 42.1397 21.5143C42.1397 32.8939 32.8939 42.1397 21.5143 42.1397C10.1348 42.1397 0.888955 32.8939 0.888955 21.5143C0.888955 10.1348 10.1348 0.888955 21.5143 0.888955ZM21.5143 0.177734C9.74365 0.177734 0.177734 9.74365 0.177734 21.5143C0.177734 33.285 9.74365 42.851 21.5143 42.851C33.285 42.851 42.851 33.285 42.851 21.5143C42.851 9.74365 33.285 0.177734 21.5143 0.177734Z" fill="url(#paint1_linear_103_585)"/>
<defs>
<linearGradient id="paint0_linear_103_585" x1="42.851" y1="0.177736" x2="0.177733" y2="42.851" gradientUnits="userSpaceOnUse">
<stop stop-color="#EFCA80"/>
<stop offset="1" stop-color="#C18039"/>
</linearGradient>
<linearGradient id="paint1_linear_103_585" x1="42.851" y1="0.177736" x2="0.177733" y2="42.851" gradientUnits="userSpaceOnUse">
<stop stop-color="#EFCA80"/>
<stop offset="1" stop-color="#C18039"/>
</linearGradient>
</defs>
</svg>
