<?xml version="1.0" encoding="utf-8"?>
<!-- Generator: Adobe Illustrator 19.0.0, SVG Export Plug-In . SVG Version: 6.00 Build 0)  -->
<svg version="1.1" id="Layer_1" xmlns="http://www.w3.org/2000/svg" xmlns:xlink="http://www.w3.org/1999/xlink" x="0px" y="0px"
	 width="19px" height="19px" viewBox="0 0 19 19" style="enable-background:new 0 0 19 19;" xml:space="preserve">
<style type="text/css">
	.st0{clip-path:url(#SVGID_2_);fill:#fff;}
</style>
<g>
	<defs>
		<rect id="SVGID_1_" width="19" height="19"/>
	</defs>
	<clipPath id="SVGID_2_">
		<use xlink:href="#SVGID_1_"  style="overflow:visible;"/>
	</clipPath>
	<path class="st0" d="M11.5,1C15.1,1,18,3.9,18,7.5C18,7.8,18.2,8,18.5,8C18.8,8,19,7.8,19,7.5C19,3.4,15.6,0,11.5,0
		C11.2,0,11,0.2,11,0.5C11,0.8,11.2,1,11.5,1 M17.5,12.5c-1.2,0-2.3-0.2-3.4-0.5c-0.5-0.2-1.2,0-1.5,0.3l-2.2,1.6
		C8,12.6,6.4,11,5.1,8.6l1.6-2.1C7.1,6,7.2,5.5,7,4.9C6.7,3.8,6.5,2.7,6.5,1.5C6.5,0.7,5.8,0,5,0H1.5C0.7,0,0,0.7,0,1.5
		C0,11.1,7.9,19,17.5,19c0.8,0,1.5-0.7,1.5-1.5V14C19,13.2,18.3,12.5,17.5,12.5 M11.5,5C12.9,5,14,6.1,14,7.5C14,7.8,14.2,8,14.5,8
		S15,7.8,15,7.5C15,5.6,13.4,4,11.5,4C11.2,4,11,4.2,11,4.5S11.2,5,11.5,5"/>
</g>
</svg>
