<svg width="217" height="430" viewBox="0 0 217 430" fill="none" xmlns="http://www.w3.org/2000/svg">
<g opacity="0.15" clip-path="url(#clip0_9_1071)">
<path d="M2.00011 0C3.84477 0 5.68943 0.0194175 7.52438 0.0679612L5.0001 143.408C4.0001 143.369 3.00982 143.33 2.00011 143.33C0.990398 143.33 0.000109503 143.369 -0.999891 143.408L-3.52417 0.0679612C-1.68922 0.0194175 0.155446 0 2.00011 0Z" fill="url(#paint0_linear_9_1071)"/>
<path d="M2.00011 430C0.155446 430 -1.68922 429.981 -3.52417 429.932L-0.999891 286.592C0.000109503 286.631 0.990398 286.67 2.00011 286.67C3.00982 286.67 4.0001 286.631 5.0001 286.592L7.52438 429.932C5.68943 429.981 3.84477 430 2.00011 430Z" fill="url(#paint1_linear_9_1071)"/>
<path d="M57.6408 422.67C55.8544 423.146 54.0679 423.602 52.2815 424.029L17.6213 284.922C18.5922 284.709 19.5631 284.476 20.534 284.223C21.5048 283.961 22.4563 283.67 23.4078 283.379L62.9515 421.175C61.1942 421.699 59.4175 422.194 57.6311 422.67H57.6408Z" fill="url(#paint2_linear_9_1071)"/>
<path d="M109.495 401.194C107.893 402.116 106.291 403.019 104.67 403.893L35.1846 278.495C36.0681 278.029 36.9516 277.563 37.8156 277.058C38.6894 276.553 39.5341 276.029 40.3788 275.495L114.233 398.369C112.67 399.33 111.078 400.272 109.486 401.194H109.495Z" fill="url(#paint3_linear_9_1071)"/>
<path d="M154.029 367.029C152.718 368.34 151.408 369.621 150.068 370.883L50.4951 267.738C51.233 267.058 51.9612 266.379 52.6699 265.67C53.3786 264.961 54.0582 264.233 54.7378 263.495L157.883 363.068C156.621 364.398 155.33 365.718 154.029 367.029Z" fill="url(#paint4_linear_9_1071)"/>
<path d="M188.194 322.495C187.272 324.097 186.33 325.68 185.369 327.243L62.4951 253.388C63.0291 252.544 63.5534 251.699 64.0582 250.825C64.5631 249.951 65.0291 249.078 65.4951 248.194L190.893 317.68C190.019 319.291 189.116 320.903 188.194 322.495Z" fill="url(#paint5_linear_9_1071)"/>
<path d="M209.67 270.641C209.194 272.427 208.689 274.194 208.175 275.961L70.3787 236.418C70.6796 235.466 70.9709 234.515 71.233 233.544C71.4952 232.573 71.7185 231.602 71.9321 230.631L211.039 265.291C210.612 267.078 210.155 268.864 209.68 270.651L209.67 270.641Z" fill="url(#paint6_linear_9_1071)"/>
<path d="M217 215C217 216.845 216.981 218.689 216.932 220.524L73.5923 218C73.6311 217 73.6699 216.01 73.6699 215C73.6699 213.99 73.6311 213 73.5923 212L216.932 209.476C216.981 211.311 217 213.155 217 215Z" fill="url(#paint7_linear_9_1071)"/>
<path d="M209.67 159.35C210.146 161.136 210.602 162.922 211.029 164.709L71.9223 199.369C71.7088 198.398 71.4757 197.427 71.2233 196.456C70.9612 195.485 70.6699 194.534 70.3787 193.583L208.175 154.039C208.699 155.796 209.194 157.573 209.67 159.359V159.35Z" fill="url(#paint8_linear_9_1071)"/>
<path d="M188.194 107.495C189.116 109.097 190.019 110.699 190.893 112.32L65.4951 181.806C65.0291 180.922 64.5631 180.039 64.0582 179.175C63.5534 178.311 63.0291 177.456 62.4951 176.612L185.369 102.757C186.33 104.32 187.272 105.913 188.194 107.505V107.495Z" fill="url(#paint9_linear_9_1071)"/>
<path d="M154.029 62.9708C155.34 64.2815 156.621 65.5922 157.883 66.932L54.7378 166.505C54.0582 165.767 53.3786 165.039 52.6699 164.33C51.9612 163.621 51.233 162.942 50.4951 162.262L150.068 59.1165C151.398 60.3786 152.718 61.6699 154.029 62.9708Z" fill="url(#paint10_linear_9_1071)"/>
<path d="M109.495 28.8058C111.097 29.7281 112.68 30.6699 114.243 31.631L40.3883 154.505C39.5436 153.971 38.699 153.447 37.8252 152.942C36.9514 152.437 36.0776 151.971 35.1941 151.505L104.68 26.097C106.291 26.9708 107.903 27.8737 109.495 28.7961V28.8058Z" fill="url(#paint11_linear_9_1071)"/>
<path d="M57.6408 7.33011C59.4272 7.80584 61.1942 8.3107 62.9612 8.82526L23.4175 146.621C22.466 146.32 21.5146 146.029 20.5437 145.767C19.5729 145.505 18.602 145.282 17.6311 145.068L52.2913 5.96118C54.0777 6.38837 55.8641 6.84468 57.6505 7.32041L57.6408 7.33011Z" fill="url(#paint12_linear_9_1071)"/>
<path d="M-53.8447 90.9902C-51.6603 89.097 -49.4078 87.2718 -47.1263 85.4951L-22.6311 147.709C-23.5632 148.048 -24.5049 148.398 -25.4272 148.786C-26.3593 149.175 -27.2622 149.582 -28.1651 150L-53.835 90.9902H-53.8447ZM-43.9709 160.029C-43.2039 159.388 -42.437 158.757 -41.6408 158.146C-40.8447 157.534 -40.0292 156.951 -39.2137 156.379L-73.068 110.612C-74.8156 112.718 -76.5146 114.874 -78.1554 117.078L-43.9806 160.029H-43.9709ZM-69.3787 208.631C-69.2913 207.641 -69.1942 206.641 -69.0583 205.65C-68.9224 204.66 -68.7573 203.67 -68.5923 202.689L-109.583 196.553C-109.854 199.01 -110.078 201.495 -110.243 203.981L-69.369 208.631H-69.3787ZM-56.6311 173.796C-56.0583 172.981 -55.4758 172.165 -54.8641 171.369C-54.2525 170.573 -53.6214 169.806 -52.9806 169.039L-91.5923 138.311C-92.8156 140.621 -93.9903 142.961 -95.1068 145.33L-56.6311 173.786V173.796ZM-65.301 190.369C-64.9612 189.437 -64.6117 188.495 -64.2234 187.573C-63.835 186.65 -63.4272 185.738 -63.0098 184.835L-103.544 167.204C-104.282 169.621 -104.961 172.058 -105.592 174.515L-65.3107 190.379L-65.301 190.369ZM14.3009 144.408L27.9611 53.1164C24.7572 53.6116 21.5922 54.2038 18.4465 54.8834L8.34946 143.621C9.33975 143.709 10.3397 143.806 11.33 143.942C12.33 144.078 13.3106 144.243 14.2912 144.408H14.3009ZM66.9805 184.825C67.398 185.728 67.8155 186.641 68.1941 187.563C68.5728 188.485 68.932 189.427 69.2718 190.359L198.553 139.456C196.864 136.214 195.078 133.029 193.184 129.913L66.9805 184.815V184.825ZM73.3592 208.621L215.437 192.456C214.932 188.786 214.311 185.155 213.573 181.573L72.5728 202.67C72.7475 203.65 72.9126 204.641 73.0388 205.631C73.165 206.621 73.2621 207.621 73.3592 208.612V208.621ZM56.9611 169.029C57.6019 169.796 58.2329 170.563 58.8446 171.359C59.4562 172.155 60.0388 172.971 60.6116 173.786L165.757 96.0096C163.155 93.5436 160.466 91.1553 157.699 88.864L56.9514 169.029H56.9611ZM26.6116 147.699C27.5436 148.039 28.4854 148.388 29.4077 148.777C30.3397 149.165 31.2427 149.573 32.1456 149.99L74.5339 52.563C71.2038 52.1262 67.8446 51.8058 64.4562 51.5728L26.6116 147.699ZM43.1844 156.369C43.9999 156.942 44.8155 157.524 45.6116 158.136C46.4077 158.748 47.1844 159.379 47.9417 160.019L122.369 66.4854C119.204 65.0097 115.99 63.631 112.728 62.3495L43.1844 156.369ZM-10.3399 144.408C-9.35928 144.233 -8.369 144.068 -7.37871 143.942C-6.37871 143.815 -5.38841 143.718 -4.39812 143.621L-13.3107 65.2427C-16.1166 66.4854 -18.8739 67.8058 -21.5923 69.2038L-10.3399 144.408ZM32.1456 279.99C31.2427 280.408 30.33 280.825 29.4077 281.204C28.4757 281.592 27.5436 281.942 26.6116 282.281L51.1067 344.495C53.398 342.718 55.6407 340.893 57.8252 339L32.1553 279.99H32.1456ZM47.9417 269.971C47.1747 270.612 46.4077 271.243 45.6116 271.854C44.8155 272.466 43.9999 273.048 43.1844 273.621L77.0388 319.388C78.7863 317.281 80.4854 315.126 82.1262 312.922L47.9514 269.971H47.9417ZM73.3495 221.369C73.2621 222.359 73.165 223.359 73.029 224.349C72.8931 225.349 72.7281 226.33 72.563 227.311L113.553 233.447C113.825 230.99 114.048 228.505 114.214 226.019L73.3397 221.369H73.3495ZM60.6019 256.204C60.0291 257.019 59.4465 257.835 58.8349 258.631C58.2232 259.427 57.5922 260.194 56.9514 260.961L95.5631 291.689C96.7864 289.379 97.9611 287.039 99.0776 284.67L60.6019 256.214V256.204ZM69.2718 239.631C68.932 240.563 68.5825 241.505 68.1941 242.427C67.8058 243.349 67.398 244.262 66.9805 245.165L107.515 262.796C108.252 260.379 108.932 257.942 109.563 255.485L69.2815 239.621L69.2718 239.631ZM-10.3302 285.592L-23.9904 376.883C-20.7865 376.388 -17.6214 375.796 -14.4758 375.116L-4.3787 286.379C-5.36899 286.291 -6.369 286.194 -7.35929 286.058C-8.35929 285.922 -9.33987 285.757 -10.3205 285.592H-10.3302ZM-63.0098 245.175C-63.4272 244.272 -63.8447 243.359 -64.2234 242.437C-64.602 241.515 -64.9612 240.573 -65.301 239.641L-194.573 290.524C-192.884 293.767 -191.097 296.951 -189.204 300.068L-63.0001 245.165L-63.0098 245.175ZM-69.3884 221.379L-211.447 237.534C-210.942 241.204 -210.32 244.835 -209.583 248.417L-68.5826 227.32C-68.7573 226.34 -68.9224 225.349 -69.0486 224.359C-69.1845 223.359 -69.2719 222.369 -69.369 221.379H-69.3884ZM-52.9904 260.971C-53.6311 260.204 -54.2622 259.437 -54.8739 258.641C-55.4855 257.845 -56.068 257.029 -56.6408 256.214L-161.786 333.99C-159.185 336.456 -156.495 338.845 -153.728 341.136L-52.9806 260.971H-52.9904ZM-22.6408 282.301C-23.5729 281.961 -24.5146 281.612 -25.437 281.223C-26.369 280.835 -27.2719 280.427 -28.1748 280.01L-70.5632 377.437C-67.2331 377.874 -63.8739 378.194 -60.4855 378.427L-22.6408 282.301ZM-39.2137 273.631C-40.0292 273.058 -40.8447 272.476 -41.6408 271.864C-42.437 271.252 -43.2136 270.621 -43.9709 269.981L-118.398 363.515C-115.233 364.99 -112.019 366.369 -108.757 367.65L-39.2137 273.631ZM14.3106 285.592C13.33 285.767 12.3397 285.932 11.3495 286.058C10.3495 286.184 9.35916 286.281 8.36886 286.379L17.2815 364.757C20.0873 363.515 22.8446 362.194 25.563 360.796L14.3106 285.592Z" fill="url(#paint13_radial_9_1071)"/>
</g>
<defs>
<linearGradient id="paint0_linear_9_1071" x1="2.00011" y1="156.515" x2="2.00011" y2="6.85436" gradientUnits="userSpaceOnUse">
<stop stop-color="#F5D389"/>
<stop offset="1" stop-color="#C17F39"/>
</linearGradient>
<linearGradient id="paint1_linear_9_1071" x1="2.0001" y1="273.485" x2="2.0001" y2="423.146" gradientUnits="userSpaceOnUse">
<stop stop-color="#F5D389"/>
<stop offset="1" stop-color="#C17F39"/>
</linearGradient>
<linearGradient id="paint2_linear_9_1071" x1="17.1349" y1="271.487" x2="55.8698" y2="416.048" gradientUnits="userSpaceOnUse">
<stop stop-color="#F5D389"/>
<stop offset="1" stop-color="#C17F39"/>
</linearGradient>
<linearGradient id="paint3_linear_9_1071" x1="31.2433" y1="265.65" x2="106.069" y2="395.252" gradientUnits="userSpaceOnUse">
<stop stop-color="#F5D389"/>
<stop offset="1" stop-color="#C17F39"/>
</linearGradient>
<linearGradient id="paint4_linear_9_1071" x1="43.3588" y1="256.355" x2="149.185" y2="362.181" gradientUnits="userSpaceOnUse">
<stop stop-color="#F5D389"/>
<stop offset="1" stop-color="#C17F39"/>
</linearGradient>
<linearGradient id="paint5_linear_9_1071" x1="52.6528" y1="244.243" x2="182.262" y2="319.073" gradientUnits="userSpaceOnUse">
<stop stop-color="#F5D389"/>
<stop offset="1" stop-color="#C17F39"/>
</linearGradient>
<linearGradient id="paint6_linear_9_1071" x1="58.4887" y1="230.138" x2="203.049" y2="268.873" gradientUnits="userSpaceOnUse">
<stop stop-color="#F5D389"/>
<stop offset="1" stop-color="#C17F39"/>
</linearGradient>
<linearGradient id="paint7_linear_9_1071" x1="60.4855" y1="215" x2="210.146" y2="215" gradientUnits="userSpaceOnUse">
<stop stop-color="#F5D389"/>
<stop offset="1" stop-color="#C17F39"/>
</linearGradient>
<linearGradient id="paint8_linear_9_1071" x1="58.4911" y1="199.862" x2="203.052" y2="161.127" gradientUnits="userSpaceOnUse">
<stop stop-color="#F5D389"/>
<stop offset="1" stop-color="#C17F39"/>
</linearGradient>
<linearGradient id="paint9_linear_9_1071" x1="52.6436" y1="185.759" x2="182.253" y2="110.928" gradientUnits="userSpaceOnUse">
<stop stop-color="#F5D389"/>
<stop offset="1" stop-color="#C17F39"/>
</linearGradient>
<linearGradient id="paint10_linear_9_1071" x1="43.3571" y1="173.64" x2="149.183" y2="67.8146" gradientUnits="userSpaceOnUse">
<stop stop-color="#F5D389"/>
<stop offset="1" stop-color="#C17F39"/>
</linearGradient>
<linearGradient id="paint11_linear_9_1071" x1="31.2462" y1="164.347" x2="106.076" y2="34.7375" gradientUnits="userSpaceOnUse">
<stop stop-color="#F5D389"/>
<stop offset="1" stop-color="#C17F39"/>
</linearGradient>
<linearGradient id="paint12_linear_9_1071" x1="17.1392" y1="158.508" x2="55.8741" y2="13.947" gradientUnits="userSpaceOnUse">
<stop stop-color="#F5D389"/>
<stop offset="1" stop-color="#C17F39"/>
</linearGradient>
<radialGradient id="paint13_radial_9_1071" cx="0" cy="0" r="1" gradientUnits="userSpaceOnUse" gradientTransform="translate(4.36887 215.718) scale(221.709 221.709)">
<stop offset="0.1" stop-color="#C17F39"/>
<stop offset="1" stop-color="#F5D389"/>
</radialGradient>
<clipPath id="clip0_9_1071">
<rect width="430" height="430" fill="white" transform="translate(-213)"/>
</clipPath>
</defs>
</svg>
