<svg width="240" height="443" viewBox="0 0 240 443" fill="none" xmlns="http://www.w3.org/2000/svg">
<g opacity="0.2" clip-path="url(#clip0_1_415)">
<path d="M221.45 0C223.35 0 225.25 0.02 227.14 0.07L224.54 147.71C223.51 147.67 222.49 147.63 221.45 147.63C220.41 147.63 219.39 147.67 218.36 147.71L215.76 0.07C217.65 0.02 219.55 0 221.45 0Z" fill="url(#paint0_linear_1_415)"/>
<path d="M164.13 7.54999C165.97 7.05999 167.81 6.58999 169.65 6.14999L205.35 149.43C204.35 149.65 203.35 149.89 202.35 150.15C201.35 150.41 200.37 150.72 199.39 151.02L158.65 9.08999C160.46 8.54999 162.29 8.03999 164.13 7.54999Z" fill="url(#paint1_linear_1_415)"/>
<path d="M110.72 29.67C112.37 28.72 114.02 27.79 115.69 26.89L187.26 156.05C186.35 156.53 185.44 157.01 184.55 157.53C183.65 158.05 182.78 158.59 181.91 159.14L105.83 32.58C107.44 31.59 109.08 30.62 110.72 29.67Z" fill="url(#paint2_linear_1_415)"/>
<path d="M64.8599 64.86C66.2099 63.51 67.5599 62.19 68.9399 60.89L171.5 167.13C170.74 167.83 169.99 168.53 169.26 169.26C168.53 169.99 167.83 170.74 167.13 171.5L60.8899 68.94C62.1899 67.57 63.5199 66.21 64.8599 64.86Z" fill="url(#paint3_linear_1_415)"/>
<path d="M29.6699 110.72C30.6199 109.07 31.5899 107.44 32.5799 105.83L159.14 181.9C158.59 182.77 158.05 183.64 157.53 184.54C157.01 185.44 156.53 186.34 156.05 187.25L26.8799 115.69C27.7799 114.03 28.7099 112.37 29.6599 110.73L29.6699 110.72Z" fill="url(#paint4_linear_1_415)"/>
<path d="M7.54989 164.13C8.03989 162.29 8.55989 160.47 9.08989 158.65L151.02 199.38C150.71 200.36 150.41 201.34 150.14 202.34C149.87 203.34 149.64 204.34 149.42 205.34L6.13989 169.65C6.57989 167.81 7.04989 165.97 7.53989 164.13H7.54989Z" fill="url(#paint5_linear_1_415)"/>
<path d="M0 221.45C0 219.55 0.02 217.65 0.07 215.76L147.71 218.36C147.67 219.39 147.63 220.41 147.63 221.45C147.63 222.49 147.67 223.51 147.71 224.54L0.07 227.14C0.02 225.25 0 223.35 0 221.45Z" fill="url(#paint6_linear_1_415)"/>
<path d="M7.5499 278.76C7.0599 276.92 6.5899 275.08 6.1499 273.24L149.43 237.54C149.65 238.54 149.89 239.54 150.15 240.54C150.42 241.54 150.72 242.52 151.02 243.5L9.0899 284.24C8.5499 282.43 8.0399 280.6 7.5499 278.76Z" fill="url(#paint7_linear_1_415)"/>
<path d="M29.6699 332.17C28.7199 330.52 27.7899 328.87 26.8899 327.2L156.05 255.63C156.53 256.54 157.01 257.45 157.53 258.34C158.05 259.24 158.59 260.11 159.14 260.98L32.5799 337.05C31.5899 335.44 30.6199 333.8 29.6699 332.16V332.17Z" fill="url(#paint8_linear_1_415)"/>
<path d="M64.8599 378.04C63.5099 376.69 62.1899 375.34 60.8899 373.96L167.13 271.4C167.83 272.16 168.53 272.91 169.26 273.64C169.99 274.37 170.74 275.07 171.5 275.77L68.9399 382.01C67.5699 380.71 66.2099 379.38 64.8599 378.04Z" fill="url(#paint9_linear_1_415)"/>
<path d="M110.72 413.23C109.07 412.28 107.44 411.31 105.83 410.32L181.9 283.76C182.77 284.31 183.64 284.85 184.54 285.37C185.44 285.89 186.34 286.37 187.25 286.85L115.68 416.01C114.02 415.11 112.36 414.18 110.72 413.23Z" fill="url(#paint10_linear_1_415)"/>
<path d="M164.13 435.35C162.29 434.86 160.47 434.34 158.65 433.81L199.38 291.88C200.36 292.19 201.34 292.49 202.34 292.76C203.34 293.03 204.34 293.26 205.34 293.48L169.64 436.76C167.8 436.32 165.96 435.85 164.12 435.36L164.13 435.35Z" fill="url(#paint11_linear_1_415)"/>
<path d="M221.45 442.9C219.55 442.9 217.65 442.88 215.76 442.83L218.36 295.19C219.39 295.23 220.41 295.27 221.45 295.27C222.49 295.27 223.51 295.23 224.54 295.19L227.14 442.83C225.25 442.88 223.35 442.9 221.45 442.9Z" fill="url(#paint12_linear_1_415)"/>
<path d="M278.76 435.35C276.92 435.84 275.08 436.31 273.24 436.75L237.54 293.47C238.54 293.25 239.54 293.01 240.54 292.75C241.54 292.48 242.52 292.18 243.5 291.88L284.23 433.81C282.42 434.35 280.59 434.86 278.75 435.35H278.76Z" fill="url(#paint13_linear_1_415)"/>
<path d="M278.76 7.55001C280.6 8.04001 282.42 8.56001 284.24 9.09001L243.51 151.02C242.53 150.71 241.55 150.41 240.55 150.14C239.55 149.87 238.55 149.64 237.55 149.42L273.25 6.14001C275.09 6.58001 276.93 7.05001 278.77 7.54001L278.76 7.55001Z" fill="url(#paint14_linear_1_415)"/>
<path d="M163.93 93.72C166.18 91.77 168.5 89.89 170.85 88.06L196.08 152.14C195.12 152.49 194.15 152.85 193.2 153.25C192.24 153.65 191.31 154.07 190.38 154.5L163.94 93.72H163.93ZM174.1 164.83C174.89 164.17 175.68 163.52 176.5 162.89C177.32 162.26 178.16 161.66 179 161.07L144.13 113.93C142.33 116.1 140.58 118.32 138.89 120.59L174.09 164.83H174.1ZM147.93 214.89C148.02 213.87 148.12 212.84 148.26 211.82C148.4 210.8 148.57 209.78 148.74 208.77L106.52 202.45C106.24 204.98 106.01 207.54 105.84 210.1L147.94 214.89H147.93ZM161.06 179.01C161.65 178.17 162.25 177.33 162.88 176.51C163.51 175.69 164.16 174.9 164.82 174.11L125.05 142.46C123.79 144.84 122.58 147.25 121.43 149.69L161.06 179V179.01ZM152.13 196.08C152.48 195.12 152.84 194.15 153.24 193.2C153.64 192.25 154.06 191.31 154.49 190.38L112.74 172.22C111.98 174.71 111.28 177.22 110.63 179.75L152.12 196.09L152.13 196.08ZM234.12 148.74L248.19 54.71C244.89 55.22 241.63 55.83 238.39 56.53L227.99 147.93C229.01 148.02 230.04 148.12 231.06 148.26C232.09 148.4 233.1 148.57 234.11 148.74H234.12ZM288.38 190.37C288.81 191.3 289.24 192.24 289.63 193.19C290.02 194.14 290.39 195.11 290.74 196.07L423.9 143.64C422.16 140.3 420.32 137.02 418.37 133.81L288.38 190.36V190.37ZM294.95 214.88L441.29 198.23C440.77 194.45 440.13 190.71 439.37 187.02L294.14 208.75C294.32 209.76 294.49 210.78 294.62 211.8C294.75 212.82 294.85 213.85 294.95 214.87V214.88ZM278.06 174.1C278.72 174.89 279.37 175.68 280 176.5C280.63 177.32 281.23 178.16 281.82 179L390.12 98.89C387.44 96.35 384.67 93.89 381.82 91.53L278.05 174.1H278.06ZM246.8 152.13C247.76 152.48 248.73 152.84 249.68 153.24C250.64 153.64 251.57 154.06 252.5 154.49L296.16 54.14C292.73 53.69 289.27 53.36 285.78 53.12L246.8 152.13ZM263.87 161.06C264.71 161.65 265.55 162.25 266.37 162.88C267.19 163.51 267.99 164.16 268.77 164.82L345.43 68.48C342.17 66.96 338.86 65.54 335.5 64.22L263.87 161.06ZM208.74 148.74C209.75 148.56 210.77 148.39 211.79 148.26C212.82 148.13 213.84 148.03 214.86 147.93L205.68 67.2C202.79 68.48 199.95 69.84 197.15 71.28L208.74 148.74ZM252.5 288.39C251.57 288.82 250.63 289.25 249.68 289.64C248.72 290.04 247.76 290.4 246.8 290.75L272.03 354.83C274.39 353 276.7 351.12 278.95 349.17L252.51 288.39H252.5ZM268.77 278.07C267.98 278.73 267.19 279.38 266.37 280.01C265.55 280.64 264.71 281.24 263.87 281.83L298.74 328.97C300.54 326.8 302.29 324.58 303.98 322.31L268.78 278.07H268.77ZM294.94 228.01C294.85 229.03 294.75 230.06 294.61 231.08C294.47 232.11 294.3 233.12 294.13 234.13L336.35 240.45C336.63 237.92 336.86 235.36 337.03 232.8L294.93 228.01H294.94ZM281.81 263.89C281.22 264.73 280.62 265.57 279.99 266.39C279.36 267.21 278.71 268 278.05 268.79L317.82 300.44C319.08 298.06 320.29 295.65 321.44 293.21L281.81 263.9V263.89ZM290.74 246.82C290.39 247.78 290.03 248.75 289.63 249.7C289.23 250.65 288.81 251.59 288.38 252.52L330.13 270.68C330.89 268.19 331.59 265.68 332.24 263.15L290.75 246.81L290.74 246.82ZM208.75 294.16L194.68 388.19C197.98 387.68 201.24 387.07 204.48 386.37L214.88 294.97C213.86 294.88 212.83 294.78 211.81 294.64C210.78 294.5 209.77 294.33 208.76 294.16H208.75ZM154.49 252.53C154.06 251.6 153.63 250.66 153.24 249.71C152.85 248.76 152.48 247.79 152.13 246.83L18.9801 299.24C20.7201 302.58 22.5601 305.86 24.5101 309.07L154.5 252.52L154.49 252.53ZM147.92 228.02L1.6001 244.66C2.1201 248.44 2.7601 252.18 3.5201 255.87L148.75 234.14C148.57 233.13 148.4 232.11 148.27 231.09C148.13 230.06 148.04 229.04 147.94 228.02H147.92ZM164.81 268.8C164.15 268.01 163.5 267.22 162.87 266.4C162.24 265.58 161.64 264.74 161.05 263.9L52.7501 344.01C55.4301 346.55 58.2001 349.01 61.0501 351.37L164.82 268.8H164.81ZM196.07 290.77C195.11 290.42 194.14 290.06 193.19 289.66C192.23 289.26 191.3 288.84 190.37 288.41L146.71 388.76C150.14 389.21 153.6 389.54 157.09 389.78L196.07 290.77ZM179 281.84C178.16 281.25 177.32 280.65 176.5 280.02C175.68 279.39 174.88 278.74 174.1 278.08L97.4401 374.42C100.7 375.94 104.01 377.36 107.37 378.68L179 281.84ZM234.13 294.16C233.12 294.34 232.1 294.51 231.08 294.64C230.05 294.77 229.03 294.87 228.01 294.97L237.19 375.7C240.08 374.42 242.92 373.06 245.72 371.62L234.13 294.16Z" fill="url(#paint15_radial_1_415)"/>
</g>
<defs>
<linearGradient id="paint0_linear_1_415" x1="221.45" y1="161.21" x2="221.45" y2="7.05999" gradientUnits="userSpaceOnUse">
<stop stop-color="#F5D389"/>
<stop offset="1" stop-color="#C17F39"/>
</linearGradient>
<linearGradient id="paint1_linear_1_415" x1="205.862" y1="163.261" x2="165.965" y2="14.3635" gradientUnits="userSpaceOnUse">
<stop stop-color="#F5D389"/>
<stop offset="1" stop-color="#C17F39"/>
</linearGradient>
<linearGradient id="paint2_linear_1_415" x1="191.324" y1="169.289" x2="114.249" y2="35.7909" gradientUnits="userSpaceOnUse">
<stop stop-color="#F5D389"/>
<stop offset="1" stop-color="#C17F39"/>
</linearGradient>
<linearGradient id="paint3_linear_1_415" x1="178.851" y1="178.851" x2="69.8507" y2="69.8508" gradientUnits="userSpaceOnUse">
<stop stop-color="#F5D389"/>
<stop offset="1" stop-color="#C17F39"/>
</linearGradient>
<linearGradient id="paint4_linear_1_415" x1="169.281" y1="191.326" x2="35.7832" y2="114.251" gradientUnits="userSpaceOnUse">
<stop stop-color="#F5D389"/>
<stop offset="1" stop-color="#C17F39"/>
</linearGradient>
<linearGradient id="paint5_linear_1_415" x1="163.261" y1="205.86" x2="14.3638" y2="165.963" gradientUnits="userSpaceOnUse">
<stop stop-color="#F5D389"/>
<stop offset="1" stop-color="#C17F39"/>
</linearGradient>
<linearGradient id="paint6_linear_1_415" x1="161.21" y1="221.45" x2="7.05999" y2="221.45" gradientUnits="userSpaceOnUse">
<stop stop-color="#F5D389"/>
<stop offset="1" stop-color="#C17F39"/>
</linearGradient>
<linearGradient id="paint7_linear_1_415" x1="163.265" y1="237.035" x2="14.3674" y2="276.932" gradientUnits="userSpaceOnUse">
<stop stop-color="#F5D389"/>
<stop offset="1" stop-color="#C17F39"/>
</linearGradient>
<linearGradient id="paint8_linear_1_415" x1="169.277" y1="251.569" x2="35.7789" y2="328.644" gradientUnits="userSpaceOnUse">
<stop stop-color="#F5D389"/>
<stop offset="1" stop-color="#C17F39"/>
</linearGradient>
<linearGradient id="paint9_linear_1_415" x1="178.853" y1="264.048" x2="69.8525" y2="373.048" gradientUnits="userSpaceOnUse">
<stop stop-color="#F5D389"/>
<stop offset="1" stop-color="#C17F39"/>
</linearGradient>
<linearGradient id="paint10_linear_1_415" x1="191.33" y1="273.619" x2="114.255" y2="407.116" gradientUnits="userSpaceOnUse">
<stop stop-color="#F5D389"/>
<stop offset="1" stop-color="#C17F39"/>
</linearGradient>
<linearGradient id="paint11_linear_1_415" x1="205.851" y1="279.632" x2="165.954" y2="428.53" gradientUnits="userSpaceOnUse">
<stop stop-color="#F5D389"/>
<stop offset="1" stop-color="#C17F39"/>
</linearGradient>
<linearGradient id="paint12_linear_1_415" x1="221.45" y1="281.69" x2="221.45" y2="435.84" gradientUnits="userSpaceOnUse">
<stop stop-color="#F5D389"/>
<stop offset="1" stop-color="#C17F39"/>
</linearGradient>
<linearGradient id="paint13_linear_1_415" x1="237.039" y1="279.632" x2="276.936" y2="428.529" gradientUnits="userSpaceOnUse">
<stop stop-color="#F5D389"/>
<stop offset="1" stop-color="#C17F39"/>
</linearGradient>
<linearGradient id="paint14_linear_1_415" x1="237.043" y1="163.263" x2="276.94" y2="14.3654" gradientUnits="userSpaceOnUse">
<stop stop-color="#F5D389"/>
<stop offset="1" stop-color="#C17F39"/>
</linearGradient>
<radialGradient id="paint15_radial_1_415" cx="0" cy="0" r="1" gradientUnits="userSpaceOnUse" gradientTransform="translate(223.89 222.19) scale(228.36 228.36)">
<stop offset="0.1" stop-color="#C17F39"/>
<stop offset="1" stop-color="#F5D389"/>
</radialGradient>
<clipPath id="clip0_1_415">
<rect width="442.9" height="442.9" fill="white"/>
</clipPath>
</defs>
</svg>
