<svg width="44" height="44" viewBox="0 0 44 44" fill="none" xmlns="http://www.w3.org/2000/svg">
<g clip-path="url(#clip0_103_578)">
<path d="M21.8862 43.0288C10.0089 43.0288 0.371826 33.3918 0.371826 21.5144C0.371826 9.63704 10.0089 0 21.8862 0C33.7636 0 43.4007 9.63704 43.4007 21.5144C43.4007 33.3918 33.7636 43.0288 21.8862 43.0288Z" fill="url(#paint0_linear_103_578)"/>
<path d="M19.2548 35.2767H24.02V23.9328H27.505L28.074 19.5588H23.9844C23.9844 19.5588 23.9844 18.8831 23.9844 17.3184C23.9489 14.2957 25.5847 14.4735 26.1892 14.4735C26.7938 14.4735 28.2873 14.5091 28.2873 14.5091C28.2873 14.5091 28.3584 13.2289 28.3229 10.8819C19.7882 8.99714 19.4326 15.2203 19.4326 15.2203L19.2904 19.5588H15.5209L15.4854 23.8972H19.2548V35.2767Z" fill="#FBFBFB"/>
<path d="M21.8862 0.711221C33.3725 0.711221 42.6894 10.0282 42.6894 21.5144C42.6894 33.0006 33.3725 42.3176 21.8862 42.3176C10.4 42.3176 1.08305 33.0006 1.08305 21.5144C1.08305 10.0282 10.4 0.711221 21.8862 0.711221ZM21.8862 0C10.0089 0 0.371826 9.63704 0.371826 21.5144C0.371826 33.3918 10.0089 43.0288 21.8862 43.0288C33.7636 43.0288 43.4007 33.3918 43.4007 21.5144C43.4007 9.63704 33.7636 0 21.8862 0Z" fill="url(#paint1_linear_103_578)"/>
</g>
<defs>
<linearGradient id="paint0_linear_103_578" x1="43.4007" y1="1.28236e-06" x2="0.371825" y2="43.0288" gradientUnits="userSpaceOnUse">
<stop stop-color="#EFCA80"/>
<stop offset="1" stop-color="#C18039"/>
</linearGradient>
<linearGradient id="paint1_linear_103_578" x1="43.4007" y1="1.28236e-06" x2="0.371825" y2="43.0288" gradientUnits="userSpaceOnUse">
<stop stop-color="#EFCA80"/>
<stop offset="1" stop-color="#C18039"/>
</linearGradient>
<clipPath id="clip0_103_578">
<rect width="43.0288" height="43.0288" fill="white" transform="translate(0.371826)"/>
</clipPath>
</defs>
</svg>
