<svg width="28" height="31" viewBox="0 0 28 31" fill="none" xmlns="http://www.w3.org/2000/svg">
<g clip-path="url(#clip0_36_1208)">
<path d="M0 8.37908C0.245463 7.0698 0.567401 5.79315 1.29639 4.69052C2.69022 2.57908 4.57991 1.40575 6.93216 1.3337C9.68405 1.2494 12.4384 1.3133 15.2816 1.3133C15.1508 1.49549 15.0707 1.6328 14.9683 1.74701C13.9827 2.84012 13.007 3.94546 11.9956 5.0073C11.7871 5.2262 11.4393 5.38391 11.1507 5.39479C9.67295 5.45189 8.18414 5.33632 6.71877 5.49948C4.94749 5.69662 3.75348 7.16633 3.73991 9.1187C3.70044 14.7637 3.72634 20.4087 3.72881 26.0537C3.72881 26.1176 3.75718 26.1815 3.79418 26.3311C4.00018 26.3311 4.2185 26.3311 4.43683 26.3311C9.30784 26.3311 14.1801 26.3311 19.0511 26.3311C21.1739 26.3311 22.6072 24.792 22.659 22.4495C22.6775 21.5888 22.6504 20.7269 22.6714 19.8649C22.6775 19.6338 22.7195 19.3401 22.8527 19.1878C23.9776 17.9044 25.1285 16.6481 26.3545 15.2899C26.3718 15.608 26.3903 15.7984 26.3903 15.9873C26.3928 18.0961 26.3952 20.2048 26.3903 22.3121C26.3804 26.4766 23.9332 29.6866 20.2291 30.3731C19.8282 30.4479 19.41 30.4235 18.9993 30.4235C13.8606 30.4262 8.72194 30.3895 3.58326 30.4452C1.83789 30.4642 0.651278 29.9843 0 27.8307L0 8.37908Z" fill="#fff"/>
<path d="M28.0001 6.33835C27.2131 7.30773 26.4274 8.27712 25.6811 9.19484C23.7915 7.11875 21.9634 5.11064 20.1428 3.10932C20.8027 2.36291 21.4688 1.56075 22.1842 0.817057C22.6752 0.307212 23.3721 0.333044 23.8519 0.853766C25.1137 2.21879 26.3571 3.60421 27.598 4.99371C27.7645 5.17998 27.8681 5.43558 28.0001 5.65855V6.33835Z" fill="#fff"/>
<path d="M18.9611 4.46347C20.7632 6.44711 22.5764 8.44163 24.4192 10.4688C24.3107 10.5979 24.1799 10.7652 24.0393 10.9215C21.6587 13.5523 19.283 16.1886 16.8876 18.8017C16.6249 19.0886 16.2672 19.3265 15.9144 19.4448C13.9593 20.1028 11.9956 20.7228 10.0295 21.3414C9.20056 21.6024 9.01431 21.4352 9.2166 20.546C9.75316 18.1844 10.3206 15.8324 10.8892 13.4789C10.9336 13.2926 11.0483 13.1064 11.1741 12.9691C13.7681 10.1275 16.3696 7.29277 18.9623 4.46347H18.9611ZM11.8464 14.3586C11.3986 16.1559 10.9398 17.9982 10.434 20.0308C12.2633 19.3918 13.8668 18.8302 15.4161 18.2891C14.2295 16.9826 13.0453 15.6774 11.8464 14.3586Z" fill="#fff"/>
</g>
<defs>
<clipPath id="clip0_36_1208">
<rect width="28" height="30.0007" fill="white" transform="translate(0 0.448608)"/>
</clipPath>
</defs>
</svg>
