<svg width="115" height="120" viewBox="0 0 115 120" fill="none" xmlns="http://www.w3.org/2000/svg">
<g opacity="0.2" clip-path="url(#clip0_62_18763)">
<path d="M57.4999 0C57.9932 0 58.4866 0.00541883 58.9773 0.0189659L58.3022 40.0208C58.0348 40.0099 57.7699 39.9991 57.4999 39.9991C57.2298 39.9991 56.965 40.0099 56.6976 40.0208L56.0225 0.0189659C56.5132 0.00541883 57.0065 0 57.4999 0Z" fill="url(#paint0_linear_62_18763)"/>
<path d="M42.6167 2.04561C43.0945 1.91285 43.5723 1.7855 44.05 1.66629L53.3196 40.4868C53.06 40.5464 52.8003 40.6114 52.5407 40.6819C52.281 40.7523 52.0265 40.8363 51.7721 40.9176L41.1938 2.46286C41.6638 2.31655 42.139 2.17837 42.6167 2.04561Z" fill="url(#paint1_linear_62_18763)"/>
<path d="M28.7487 8.03883C29.1771 7.78144 29.6056 7.52946 30.0392 7.28561L48.6225 42.2804C48.3862 42.4105 48.1499 42.5405 47.9188 42.6814C47.6851 42.8223 47.4592 42.9686 47.2334 43.1176L27.479 8.82727C27.897 8.55904 28.3229 8.29623 28.7487 8.03883Z" fill="url(#paint2_linear_62_18763)"/>
<path d="M16.8411 17.5733C17.1917 17.2075 17.5422 16.8498 17.9005 16.4976L44.5304 45.2824C44.3331 45.4721 44.1384 45.6618 43.9488 45.8596C43.7593 46.0573 43.5775 46.2605 43.3958 46.4665L15.8103 18.6787C16.1479 18.3075 16.4932 17.939 16.8411 17.5733Z" fill="url(#paint3_linear_62_18763)"/>
<path d="M7.70392 29.9986C7.95059 29.5516 8.20246 29.11 8.45951 28.6737L41.3211 49.2843C41.1783 49.52 41.0381 49.7557 40.9031 49.9995C40.768 50.2434 40.6434 50.4872 40.5188 50.7338L6.97949 31.3452C7.21318 30.8955 7.45466 30.4457 7.70133 30.0014L7.70392 29.9986Z" fill="url(#paint4_linear_62_18763)"/>
<path d="M1.96035 44.4696C2.08758 43.9711 2.2226 43.478 2.36021 42.9849L39.2127 54.0203C39.1322 54.2858 39.0543 54.5514 38.9842 54.8223C38.9141 55.0932 38.8543 55.3642 38.7972 55.6351L1.59424 45.9652C1.70849 45.4667 1.83052 44.9682 1.95775 44.4696H1.96035Z" fill="url(#paint5_linear_62_18763)"/>
<path d="M0 60C0 59.4852 0.00519305 58.9705 0.0181757 58.4584L38.3532 59.1628C38.3429 59.4419 38.3325 59.7183 38.3325 60C38.3325 60.2818 38.3429 60.5582 38.3532 60.8372L0.0181757 61.5417C0.00519305 61.0296 0 60.5148 0 60Z" fill="url(#paint6_linear_62_18763)"/>
<path d="M1.96044 75.5276C1.83321 75.0291 1.71117 74.5306 1.59692 74.032L38.7999 64.3594C38.857 64.6304 38.9193 64.9013 38.9869 65.1723C39.057 65.4432 39.1349 65.7087 39.2128 65.9742L2.3603 77.0124C2.22009 76.522 2.08767 76.0262 1.96044 75.5276Z" fill="url(#paint7_linear_62_18763)"/>
<path d="M7.70377 89.9987C7.4571 89.5516 7.21562 89.1046 6.98193 88.6521L40.5186 69.2608C40.6433 69.5074 40.7679 69.7539 40.9029 69.9951C41.0379 70.2389 41.1781 70.4746 41.321 70.7103L8.45936 91.3209C8.2023 90.8846 7.95044 90.4403 7.70377 89.996V89.9987Z" fill="url(#paint8_linear_62_18763)"/>
<path d="M16.8411 102.427C16.4906 102.061 16.1479 101.695 15.8103 101.321L43.3958 73.5335C43.5775 73.7394 43.7593 73.9426 43.9488 74.1404C44.1384 74.3382 44.3331 74.5279 44.5304 74.7175L17.9005 103.502C17.5448 103.15 17.1917 102.79 16.8411 102.427Z" fill="url(#paint9_linear_62_18763)"/>
<path d="M28.7487 111.961C28.3203 111.704 27.897 111.441 27.479 111.173L47.2308 76.8824C47.4567 77.0314 47.6825 77.1777 47.9162 77.3186C48.1499 77.4595 48.3836 77.5895 48.6199 77.7196L30.0366 112.714C29.6056 112.471 29.1745 112.219 28.7487 111.961Z" fill="url(#paint10_linear_62_18763)"/>
<path d="M42.6167 117.954C42.139 117.822 41.6664 117.681 41.1938 117.537L51.7695 79.0824C52.0239 79.1664 52.2784 79.2477 52.5381 79.3208C52.7977 79.394 53.0574 79.4563 53.317 79.5159L44.0474 118.336C43.5697 118.217 43.0919 118.09 42.6141 117.957L42.6167 117.954Z" fill="url(#paint11_linear_62_18763)"/>
<path d="M57.4999 120C57.0065 120 56.5132 119.995 56.0225 119.981L56.6976 79.9792C56.965 79.9901 57.2298 80.0009 57.4999 80.0009C57.7699 80.0009 58.0348 79.9901 58.3022 79.9792L58.9773 119.981C58.4866 119.995 57.9932 120 57.4999 120Z" fill="url(#paint12_linear_62_18763)"/>
<path d="M72.3806 117.954C71.9028 118.087 71.4251 118.214 70.9473 118.334L61.6777 79.5132C61.9374 79.4536 62.197 79.3886 62.4567 79.3181C62.7163 79.245 62.9708 79.1637 63.2253 79.0824L73.8009 117.537C73.3309 117.683 72.8558 117.822 72.378 117.954H72.3806Z" fill="url(#paint13_linear_62_18763)"/>
<path d="M86.2488 111.961C85.8204 112.219 85.3919 112.471 84.9583 112.714L66.375 77.7196C66.6113 77.5895 66.8476 77.4595 67.0787 77.3186C67.3123 77.1777 67.5382 77.0314 67.7641 76.8824L87.5159 111.173C87.0978 111.441 86.672 111.704 86.2462 111.961H86.2488Z" fill="url(#paint14_linear_62_18763)"/>
<path d="M98.159 102.427C97.8085 102.792 97.458 103.15 97.0997 103.502L70.4697 74.7175C70.6671 74.5279 70.8618 74.3382 71.0514 74.1404C71.2409 73.9426 71.4226 73.7394 71.6044 73.5335L99.1899 101.321C98.8523 101.692 98.507 102.061 98.159 102.427Z" fill="url(#paint15_linear_62_18763)"/>
<path d="M107.296 89.9986C107.049 90.4457 106.798 90.8873 106.541 91.3235L73.679 70.713C73.8218 70.4773 73.962 70.2416 74.097 69.9977C74.232 69.7539 74.3566 69.51 74.4813 69.2635L108.018 88.6548C107.784 89.1045 107.543 89.5543 107.296 89.9986Z" fill="url(#paint16_linear_62_18763)"/>
<path d="M113.04 75.5277C112.912 76.0262 112.777 76.5193 112.64 77.0124L75.7874 65.977C75.8678 65.7115 75.9457 65.4459 76.0158 65.175C76.086 64.9041 76.1457 64.6331 76.2028 64.3622L113.406 74.0348C113.292 74.5333 113.169 75.0319 113.042 75.5304L113.04 75.5277Z" fill="url(#paint17_linear_62_18763)"/>
<path d="M115 60C115 60.5148 114.995 61.0296 114.982 61.5417L76.6467 60.8372C76.6571 60.5582 76.6675 60.2818 76.6675 60C76.6675 59.7183 76.6571 59.4419 76.6467 59.1628L114.982 58.4584C114.995 58.9705 115 59.4852 115 60Z" fill="url(#paint18_linear_62_18763)"/>
<path d="M113.04 44.4697C113.167 44.9682 113.289 45.4667 113.403 45.9653L76.2002 55.6379C76.1431 55.3669 76.0808 55.096 76.0132 54.825C75.9431 54.5541 75.8652 54.2886 75.7874 54.0231L112.64 42.9876C112.78 43.478 112.912 43.9738 113.04 44.4724V44.4697Z" fill="url(#paint19_linear_62_18763)"/>
<path d="M107.296 29.9986C107.543 30.4457 107.784 30.8928 108.018 31.3452L74.4813 50.7365C74.3566 50.49 74.232 50.2434 74.097 50.0023C73.962 49.7611 73.8218 49.5227 73.679 49.287L106.541 28.6765C106.798 29.1127 107.049 29.557 107.296 30.0014V29.9986Z" fill="url(#paint20_linear_62_18763)"/>
<path d="M98.159 17.5733C98.5096 17.939 98.8523 18.3048 99.1899 18.6787L71.6044 46.4665C71.4226 46.2605 71.2409 46.0573 71.0514 45.8596C70.8618 45.6618 70.6671 45.4721 70.4697 45.2824L97.0997 16.4976C97.4554 16.8498 97.8085 17.2102 98.159 17.5733Z" fill="url(#paint21_linear_62_18763)"/>
<path d="M86.2486 8.03883C86.6771 8.29622 87.1003 8.55903 87.5183 8.82727L67.7666 43.1176C67.5407 42.9686 67.3148 42.8223 67.0811 42.6814C66.8474 42.5405 66.6137 42.4105 66.3774 42.2804L84.9608 7.2829C85.3918 7.52675 85.8228 7.77872 86.2486 8.03612V8.03883Z" fill="url(#paint22_linear_62_18763)"/>
<path d="M72.3807 2.0456C72.8585 2.17836 73.331 2.31925 73.8036 2.46285L63.2279 40.9176C62.9735 40.8336 62.719 40.7523 62.4594 40.6792C62.1997 40.606 61.9401 40.5437 61.6804 40.4841L70.95 1.66357C71.4278 1.78279 71.9055 1.91013 72.3833 2.04289L72.3807 2.0456Z" fill="url(#paint23_linear_62_18763)"/>
<path d="M42.5649 25.3927C43.1491 24.8643 43.7515 24.3549 44.3617 23.8591L50.9127 41.2211C50.6634 41.3159 50.4116 41.4134 50.1649 41.5218C49.9156 41.6302 49.6742 41.744 49.4327 41.8605L42.5675 25.3927H42.5649ZM45.2055 44.6593C45.4107 44.4805 45.6158 44.3044 45.8287 44.1337C46.0416 43.963 46.2597 43.8004 46.4778 43.6406L37.4238 30.8684C36.9564 31.4563 36.502 32.0578 36.0632 32.6728L45.2029 44.6593H45.2055ZM38.4104 58.2226C38.4338 57.9463 38.4598 57.6672 38.4961 57.3909C38.5325 57.1145 38.5766 56.8381 38.6208 56.5645L27.6582 54.8521C27.5855 55.5376 27.5258 56.2312 27.4817 56.9248L38.413 58.2226H38.4104ZM41.8197 48.5013C41.9729 48.2737 42.1287 48.0461 42.2922 47.8239C42.4558 47.6017 42.6246 47.3877 42.796 47.1736L32.4696 38.5983C32.1424 39.2432 31.8283 39.8962 31.5297 40.5573L41.8197 48.4985V48.5013ZM39.501 53.1262C39.5919 52.8661 39.6853 52.6033 39.7892 52.3459C39.8931 52.0885 40.0021 51.8338 40.1138 51.5819L29.2733 46.6616C29.0759 47.3362 28.8942 48.0163 28.7254 48.7018L39.4984 53.1289L39.501 53.1262ZM60.7899 40.2999L64.4432 14.8232C63.5863 14.9614 62.7399 15.1267 61.8986 15.3163L59.1982 40.0804C59.4631 40.1048 59.7305 40.1319 59.9953 40.1698C60.2628 40.2077 60.525 40.2538 60.7873 40.2999H60.7899ZM74.8786 51.5792C74.9903 51.8311 75.1019 52.0858 75.2032 52.3432C75.3044 52.6006 75.4005 52.8634 75.4914 53.1235L110.067 38.9181C109.615 38.0131 109.137 37.1244 108.631 36.2547L74.8786 51.5764V51.5792ZM76.5845 58.2199L114.582 53.7088C114.447 52.6846 114.281 51.6713 114.084 50.6715L76.3742 56.5591C76.4209 56.8327 76.4651 57.1091 76.4988 57.3854C76.5326 57.6618 76.5586 57.9409 76.5845 58.2172V58.2199ZM72.199 47.1709C72.3704 47.385 72.5391 47.599 72.7027 47.8212C72.8663 48.0434 73.0221 48.271 73.1753 48.4985L101.296 26.7934C100.6 26.1052 99.8805 25.4387 99.1405 24.7993L72.1964 47.1709H72.199ZM64.0823 41.2183C64.3315 41.3132 64.5834 41.4107 64.8301 41.5191C65.0793 41.6275 65.3208 41.7413 65.5623 41.8578L76.8987 14.6688C76.0081 14.5469 75.1097 14.4575 74.2035 14.3924L64.0823 41.2183ZM68.5145 43.6379C68.7326 43.7977 68.9507 43.9603 69.1637 44.131C69.3766 44.3017 69.5843 44.4778 69.7868 44.6566L89.6918 18.5541C88.8453 18.1423 87.9859 17.7575 87.1134 17.3999L68.5145 43.6379ZM54.1999 40.2999C54.4622 40.2511 54.727 40.205 54.9918 40.1698C55.2593 40.1346 55.5241 40.1075 55.789 40.0804L53.4054 18.2073C52.655 18.5541 51.9176 18.9226 51.1905 19.3127L54.1999 40.2999ZM65.5623 78.1368C65.3208 78.2533 65.0767 78.3699 64.8301 78.4755C64.5808 78.5839 64.3315 78.6814 64.0823 78.7763L70.6333 96.1382C71.2461 95.6424 71.8459 95.133 72.4301 94.6047L65.5649 78.1368H65.5623ZM69.7868 75.3407C69.5817 75.5195 69.3766 75.6957 69.1637 75.8664C68.9507 76.037 68.7326 76.1996 68.5145 76.3595L77.5686 89.1316C78.036 88.5437 78.4904 87.9422 78.9292 87.3272L69.7894 75.3407H69.7868ZM76.5819 61.7774C76.5586 62.0537 76.5326 62.3328 76.4962 62.6092C76.4599 62.8883 76.4157 63.1619 76.3716 63.4356L87.3341 65.1479C87.4068 64.4624 87.4666 63.7688 87.5107 63.0752L76.5793 61.7774H76.5819ZM73.1727 71.4988C73.0195 71.7264 72.8637 71.954 72.7001 72.1761C72.5365 72.3983 72.3678 72.6123 72.1964 72.8264L82.5228 81.4017C82.8499 80.7568 83.1641 80.1039 83.4627 79.4428L73.1727 71.5015V71.4988ZM75.4914 66.8738C75.4005 67.1339 75.307 67.3967 75.2032 67.6541C75.0993 67.9115 74.9903 68.1662 74.8786 68.4182L85.7191 73.3385C85.9164 72.6638 86.0982 71.9838 86.267 71.2983L75.494 66.8711L75.4914 66.8738ZM54.2025 79.7002L50.5492 105.177C51.406 105.039 52.2525 104.873 53.0938 104.684L55.7942 79.9196C55.5293 79.8952 55.2619 79.8682 54.997 79.8302C54.7296 79.7923 54.4673 79.7462 54.2051 79.7002H54.2025ZM40.1138 68.4209C40.0021 68.1689 39.8905 67.9142 39.7892 67.6568C39.6879 67.3994 39.5919 67.1366 39.501 66.8765L4.92828 81.0766C5.38008 81.9815 5.85784 82.8702 6.36416 83.7399L40.1164 68.4182L40.1138 68.4209ZM38.4078 61.7801L0.415527 66.2886C0.550547 67.3127 0.716724 68.326 0.91406 69.3258L38.6234 63.4383C38.5766 63.1646 38.5325 62.8882 38.4987 62.6119C38.4624 62.3328 38.439 62.0565 38.413 61.7801H38.4078ZM42.7934 72.8291C42.622 72.615 42.4532 72.401 42.2896 72.1788C42.1261 71.9567 41.9703 71.7291 41.8171 71.5015L13.6967 93.2066C14.3926 93.8948 15.1118 94.5613 15.8519 95.2007L42.796 72.8291H42.7934ZM50.9101 78.7817C50.6608 78.6869 50.409 78.5893 50.1623 78.4809C49.913 78.3726 49.6716 78.2588 49.4301 78.1423L38.0937 105.331C38.9843 105.453 39.8827 105.543 40.7889 105.608L50.9101 78.7817ZM46.4778 76.3622C46.2597 76.2023 46.0416 76.0397 45.8287 75.8691C45.6158 75.6984 45.4081 75.5223 45.2055 75.3434L25.3006 101.446C26.1471 101.858 27.0065 102.243 27.879 102.6L46.4778 76.3622ZM60.7925 79.7002C60.5302 79.7489 60.2654 79.795 60.0005 79.8302C59.7331 79.8654 59.4682 79.8925 59.2034 79.9196L61.587 101.793C62.3374 101.446 63.0748 101.077 63.8018 100.687L60.7925 79.7002Z" fill="url(#paint24_radial_62_18763)"/>
</g>
<defs>
<linearGradient id="paint0_linear_62_18763" x1="57.4999" y1="43.6785" x2="57.4999" y2="1.91285" gradientUnits="userSpaceOnUse">
<stop stop-color="#F5D389"/>
<stop offset="1" stop-color="#C17F39"/>
</linearGradient>
<linearGradient id="paint1_linear_62_18763" x1="53.4525" y1="44.2342" x2="42.2395" y2="4.13036" gradientUnits="userSpaceOnUse">
<stop stop-color="#F5D389"/>
<stop offset="1" stop-color="#C17F39"/>
</linearGradient>
<linearGradient id="paint2_linear_62_18763" x1="49.6778" y1="45.8673" x2="28.3605" y2="10.4832" gradientUnits="userSpaceOnUse">
<stop stop-color="#F5D389"/>
<stop offset="1" stop-color="#C17F39"/>
</linearGradient>
<linearGradient id="paint3_linear_62_18763" x1="46.4392" y1="48.4582" x2="16.9332" y2="20.1816" gradientUnits="userSpaceOnUse">
<stop stop-color="#F5D389"/>
<stop offset="1" stop-color="#C17F39"/>
</linearGradient>
<linearGradient id="paint4_linear_62_18763" x1="43.9543" y1="51.8382" x2="8.56944" y2="32.26" gradientUnits="userSpaceOnUse">
<stop stop-color="#F5D389"/>
<stop offset="1" stop-color="#C17F39"/>
</linearGradient>
<linearGradient id="paint5_linear_62_18763" x1="42.3912" y1="55.776" x2="3.51712" y2="45.7937" gradientUnits="userSpaceOnUse">
<stop stop-color="#F5D389"/>
<stop offset="1" stop-color="#C17F39"/>
</linearGradient>
<linearGradient id="paint6_linear_62_18763" x1="41.8585" y1="60" x2="1.83314" y2="60" gradientUnits="userSpaceOnUse">
<stop stop-color="#F5D389"/>
<stop offset="1" stop-color="#C17F39"/>
</linearGradient>
<linearGradient id="paint7_linear_62_18763" x1="42.3922" y1="64.2226" x2="3.51813" y2="74.2049" gradientUnits="userSpaceOnUse">
<stop stop-color="#F5D389"/>
<stop offset="1" stop-color="#C17F39"/>
</linearGradient>
<linearGradient id="paint8_linear_62_18763" x1="43.953" y1="68.1604" x2="8.56815" y2="87.7387" gradientUnits="userSpaceOnUse">
<stop stop-color="#F5D389"/>
<stop offset="1" stop-color="#C17F39"/>
</linearGradient>
<linearGradient id="paint9_linear_62_18763" x1="46.4397" y1="71.5415" x2="16.9337" y2="99.8181" gradientUnits="userSpaceOnUse">
<stop stop-color="#F5D389"/>
<stop offset="1" stop-color="#C17F39"/>
</linearGradient>
<linearGradient id="paint10_linear_62_18763" x1="49.6792" y1="74.1347" x2="28.362" y2="109.519" gradientUnits="userSpaceOnUse">
<stop stop-color="#F5D389"/>
<stop offset="1" stop-color="#C17F39"/>
</linearGradient>
<linearGradient id="paint11_linear_62_18763" x1="53.4497" y1="75.7639" x2="42.2367" y2="115.868" gradientUnits="userSpaceOnUse">
<stop stop-color="#F5D389"/>
<stop offset="1" stop-color="#C17F39"/>
</linearGradient>
<linearGradient id="paint12_linear_62_18763" x1="57.4999" y1="76.3215" x2="57.4999" y2="118.087" gradientUnits="userSpaceOnUse">
<stop stop-color="#F5D389"/>
<stop offset="1" stop-color="#C17F39"/>
</linearGradient>
<linearGradient id="paint13_linear_62_18763" x1="61.5476" y1="75.7639" x2="72.7606" y2="115.868" gradientUnits="userSpaceOnUse">
<stop stop-color="#F5D389"/>
<stop offset="1" stop-color="#C17F39"/>
</linearGradient>
<linearGradient id="paint14_linear_62_18763" x1="65.3209" y1="74.135" x2="86.6368" y2="109.517" gradientUnits="userSpaceOnUse">
<stop stop-color="#F5D389"/>
<stop offset="1" stop-color="#C17F39"/>
</linearGradient>
<linearGradient id="paint15_linear_62_18763" x1="68.5612" y1="71.541" x2="98.0672" y2="99.8176" gradientUnits="userSpaceOnUse">
<stop stop-color="#F5D389"/>
<stop offset="1" stop-color="#C17F39"/>
</linearGradient>
<linearGradient id="paint16_linear_62_18763" x1="71.0467" y1="68.1607" x2="106.432" y2="87.739" gradientUnits="userSpaceOnUse">
<stop stop-color="#F5D389"/>
<stop offset="1" stop-color="#C17F39"/>
</linearGradient>
<linearGradient id="paint17_linear_62_18763" x1="72.6075" y1="64.2247" x2="111.482" y2="74.2069" gradientUnits="userSpaceOnUse">
<stop stop-color="#F5D389"/>
<stop offset="1" stop-color="#C17F39"/>
</linearGradient>
<linearGradient id="paint18_linear_62_18763" x1="73.1414" y1="60" x2="113.167" y2="60" gradientUnits="userSpaceOnUse">
<stop stop-color="#F5D389"/>
<stop offset="1" stop-color="#C17F39"/>
</linearGradient>
<linearGradient id="paint19_linear_62_18763" x1="72.6081" y1="55.7755" x2="111.482" y2="45.7932" gradientUnits="userSpaceOnUse">
<stop stop-color="#F5D389"/>
<stop offset="1" stop-color="#C17F39"/>
</linearGradient>
<linearGradient id="paint20_linear_62_18763" x1="71.0443" y1="51.8396" x2="106.429" y2="32.2614" gradientUnits="userSpaceOnUse">
<stop stop-color="#F5D389"/>
<stop offset="1" stop-color="#C17F39"/>
</linearGradient>
<linearGradient id="paint21_linear_62_18763" x1="68.5607" y1="48.4578" x2="98.0668" y2="20.1811" gradientUnits="userSpaceOnUse">
<stop stop-color="#F5D389"/>
<stop offset="1" stop-color="#C17F39"/>
</linearGradient>
<linearGradient id="paint22_linear_62_18763" x1="65.3216" y1="45.8643" x2="86.6389" y2="10.4801" gradientUnits="userSpaceOnUse">
<stop stop-color="#F5D389"/>
<stop offset="1" stop-color="#C17F39"/>
</linearGradient>
<linearGradient id="paint23_linear_62_18763" x1="61.5489" y1="44.2347" x2="72.7619" y2="4.13085" gradientUnits="userSpaceOnUse">
<stop stop-color="#F5D389"/>
<stop offset="1" stop-color="#C17F39"/>
</linearGradient>
<radialGradient id="paint24_radial_62_18763" cx="0" cy="0" r="1" gradientUnits="userSpaceOnUse" gradientTransform="translate(58.1336 60.2005) scale(59.2942 61.8722)">
<stop offset="0.1" stop-color="#C17F39"/>
<stop offset="1" stop-color="#F5D389"/>
</radialGradient>
<clipPath id="clip0_62_18763">
<rect width="115" height="120" fill="white"/>
</clipPath>
</defs>
</svg>
