<svg width="44" height="44" viewBox="0 0 44 44" fill="none" xmlns="http://www.w3.org/2000/svg">
<g clip-path="url(#clip0_103_561)">
<path d="M22.2581 43.0288C10.3807 43.0288 0.743652 33.3918 0.743652 21.5144C0.743652 9.63704 10.3807 0 22.2581 0C34.1355 0 43.7725 9.63704 43.7725 21.5144C43.7725 33.3918 34.1355 43.0288 22.2581 43.0288Z" fill="url(#paint0_linear_103_561)"/>
<path d="M31.4328 16.8559C31.2194 16.038 30.5793 15.3979 29.7614 15.149C28.2679 14.7578 22.2581 14.7578 22.2581 14.7578C22.2581 14.7578 16.2838 14.7578 14.7547 15.149C13.9368 15.3623 13.2967 16.0024 13.0833 16.8559C12.6921 18.3495 12.6921 21.5144 12.6921 21.5144C12.6921 21.5144 12.6921 24.6438 13.0833 26.1729C13.2967 26.9908 13.9368 27.6309 14.7547 27.8798C16.2482 28.271 22.2581 28.271 22.2581 28.271C22.2581 28.271 28.2323 28.271 29.7614 27.8798C30.5793 27.6665 31.2194 27.0264 31.4328 26.1729C31.824 24.6793 31.824 21.5144 31.824 21.5144C31.824 21.5144 31.8595 18.385 31.4328 16.8559ZM20.2666 24.3593V18.6695L25.2452 21.5144L20.2666 24.3593Z" fill="#FBFBFB"/>
<path d="M22.2581 0.711221C33.7443 0.711221 43.0613 10.0282 43.0613 21.5144C43.0613 33.0006 33.7443 42.3176 22.2581 42.3176C10.7719 42.3176 1.45487 33.0006 1.45487 21.5144C1.45487 10.0282 10.7719 0.711221 22.2581 0.711221ZM22.2581 0C10.3807 0 0.743652 9.63704 0.743652 21.5144C0.743652 33.3918 10.3807 43.0288 22.2581 43.0288C34.1355 43.0288 43.7725 33.3918 43.7725 21.5144C43.7725 9.63704 34.1355 0 22.2581 0Z" fill="url(#paint1_linear_103_561)"/>
</g>
<defs>
<linearGradient id="paint0_linear_103_561" x1="43.7725" y1="1.28236e-06" x2="0.743651" y2="43.0288" gradientUnits="userSpaceOnUse">
<stop stop-color="#EFCA80"/>
<stop offset="1" stop-color="#C18039"/>
</linearGradient>
<linearGradient id="paint1_linear_103_561" x1="43.7725" y1="1.28236e-06" x2="0.743651" y2="43.0288" gradientUnits="userSpaceOnUse">
<stop stop-color="#EFCA80"/>
<stop offset="1" stop-color="#C18039"/>
</linearGradient>
<clipPath id="clip0_103_561">
<rect width="43.0288" height="43.0288" fill="white" transform="translate(0.743652)"/>
</clipPath>
</defs>
</svg>
