<?xml version="1.0" encoding="utf-8"?>
<!-- Generator: Adobe Illustrator 19.0.0, SVG Export Plug-In . SVG Version: 6.00 Build 0)  -->
<svg version="1.1" id="Layer_1" xmlns="http://www.w3.org/2000/svg" xmlns:xlink="http://www.w3.org/1999/xlink" x="0px" y="0px"
	 width="18px" height="24px" viewBox="0 0 18 24" style="enable-background:new 0 0 18 24;" xml:space="preserve">
<style type="text/css">
	.st0{clip-path:url(#SVGID_2_);fill:#fff;}
</style>
<g>
	<defs>
		<rect id="SVGID_1_" width="18" height="24"/>
	</defs>
	<clipPath id="SVGID_2_">
		<use xlink:href="#SVGID_1_"  style="overflow:visible;"/>
	</clipPath>
	<path class="st0" d="M18,6.3c0-0.1-0.1-0.1-0.1-0.2l-6-6c0,0-0.1-0.1-0.2-0.1c-0.1,0-0.1,0-0.2,0h-10C0.7,0,0,0.7,0,1.5v21
		C0,23.3,0.7,24,1.5,24h15c0.8,0,1.5-0.7,1.5-1.5v-16C18,6.4,18,6.4,18,6.3 M13.5,18h-9C4.2,18,4,17.8,4,17.5C4,17.2,4.2,17,4.5,17
		h9c0.3,0,0.5,0.2,0.5,0.5C14,17.8,13.8,18,13.5,18 M13.5,14h-9C4.2,14,4,13.8,4,13.5C4,13.2,4.2,13,4.5,13h9c0.3,0,0.5,0.2,0.5,0.5
		C14,13.8,13.8,14,13.5,14 M13.5,10h-9C4.2,10,4,9.8,4,9.5S4.2,9,4.5,9h9C13.8,9,14,9.2,14,9.5S13.8,10,13.5,10 M12.5,6
		C12.2,6,12,5.8,12,5.5V1.7L16.3,6H12.5z"/>
</g>
</svg>
